<svg xmlns="http://www.w3.org/2000/svg" width="3457.227" height="66.444" viewBox="0 0 3457.227 66.444"><g transform="translate(-14 -455)"><g transform="translate(14 457)"><path d="M6.613,77.625C3.307,77.625,0,74.318,0,70.35a8.164,8.164,0,0,1,2.645-5.291,7.042,7.042,0,0,1,11.243,3.307c.661,3.968-1.323,9.92-7.275,9.259Z" transform="translate(0 -26.04)" fill="#fff"/><path d="M43.786,58.485c-3.307,0-6.613-.661-8.6-2.645-3.307-3.968-3.968-9.259-3.307-14.55C33.2,29.386,38.5,18.143,33.866,6.9H45.109c2.645,5.291,1.984,11.243,1.984,17.195-.661,7.936-4.629,14.55-4.629,22.486,0,2.645,2.645,2.645,3.307,3.968,1.984,1.323,1.984,4.629,3.307,7.275a14.562,14.562,0,0,1-5.291.661Z" transform="translate(-10.719 -6.9)" fill="#fff"/><path d="M79.576,65.384c-11.9-.661-18.518-13.227-15.872-23.808,1.984-6.613,5.952-11.9,13.227-13.888,9.92-1.984,19.179,3.307,21.824,12.566,1.323,7.275.661,14.55-4.629,19.84-3.968,3.307-8.6,6.613-14.55,5.291Zm-.661-9.259c1.984,0,3.968,0,5.291-1.323,3.307-4.629,6.613-12.566,1.323-17.195-1.984-1.323-4.629-1.323-5.952,0-5.291,3.307-7.936,14.55-.661,18.518Z" transform="translate(-21.377 -13.799)" fill="#fff"/><path d="M127.81,64.681c-1.323-10.582,1.323-20.5,1.323-31.083,0-1.984-1.323-3.968-.661-4.629,3.307-2.645,7.275-1.984,10.582-.661.661,0,.661,2.645,1.323,3.968,1.984-1.984,3.968-2.645,6.613-3.968s5.952-.661,8.6.661c4.629,1.984,6.613,7.275,6.613,12.566-.661,7.936-1.984,15.211-.661,23.147-4.629,1.323-8.6.661-13.227.661-1.323-8.6,1.984-15.872,2.645-24.47a5.014,5.014,0,0,0-1.323-2.645C146.989,36.9,142.36,36.9,141.7,39.55a51.674,51.674,0,0,0-3.968,24.47c-3.307,0-6.613-.661-9.92.661Z" transform="translate(-43.158 -13.758)" fill="#fff"/><path d="M206.024,66.087c-13.227-.661-21.163-15.211-15.872-27.115,3.968-8.6,13.227-13.888,22.486-10.582s11.243,14.55,7.936,23.147c-7.275,1.323-14.55-.661-21.163-3.307-.661,3.307.661,5.952,3.307,7.936a14.008,14.008,0,0,0,12.566,0c1.323,1.984,2.645,4.629,4.629,5.952a26.028,26.028,0,0,1-13.888,3.968Zm-5.291-25.131c3.968.661,7.936,3.307,11.9,2.645.661,0,1.323-2.645,0-4.629a13.835,13.835,0,0,0-3.968-2.645c-3.968-1.323-5.952,1.984-7.936,4.629Z" transform="translate(-63.834 -13.841)" fill="#fff"/><path d="M258.839,58.485c-4.629.661-8.6-2.645-10.582-6.613-3.968-9.92,1.323-20.5,2.645-30.422.661-5.291-.661-9.92-1.984-14.55h11.9c1.323,4.629,1.323,9.259,1.984,13.888,0,8.6-4.629,17.195-4.629,25.792a3.124,3.124,0,0,0,3.307,3.307,40.455,40.455,0,0,0,3.307,7.936,18.31,18.31,0,0,1-5.952.661Z" transform="translate(-83.582 -6.9)" fill="#fff"/><path d="M283.275,78.078c-1.323,0-3.968.661-3.968,0-1.984-3.307.661-6.613,0-9.92,4.629,1.323,8.6-1.323,8.6-5.952-.661-11.9-2.645-25.131-11.9-33.729,4.629-1.323,8.6-.661,13.227-.661a26.805,26.805,0,0,0,3.307,5.952c1.984,6.613,4.629,13.227,2.645,20.5a42.694,42.694,0,0,0,8.6-25.131c3.307.661,5.952-.661,9.259-.661,0,7.275-1.984,13.888-4.629,20.5a202.868,202.868,0,0,1-15.211,25.792,10.916,10.916,0,0,1-9.92,3.307Z" transform="translate(-93.469 -13.927)" fill="#fff"/><path d="M348.227,65.367A17.625,17.625,0,0,1,335,59.415c1.323-2.645,2.645-5.952,4.629-7.936a15.678,15.678,0,0,0,9.92,5.952,2.845,2.845,0,0,0,2.645-2.645c-1.984-5.952-9.92-6.613-12.566-12.566-1.984-4.629-.661-10.582,3.968-13.227,7.275-3.307,16.534-1.984,21.824,3.968-1.323,2.645-2.645,5.952-4.629,7.936-1.323-2.645-3.968-3.968-6.613-4.629h-2.645c-1.323.661-1.984,1.984-.661,3.968,4.629,5.291,13.888,7.275,13.227,15.211-.661,7.275-8.6,11.243-15.872,9.92Z" transform="translate(-113.449 -13.782)" fill="#fff"/><path d="M393.275,63.274c-1.984-9.92-1.984-20.5-5.291-30.422-.661-1.323-1.984-2.645-1.984-4.629,3.968-1.323,8.6-1.323,12.566-1.323,3.968,7.936,1.984,17.856,1.984,26.454l1.984-5.952c3.307-6.613,6.613-13.227,8.6-19.84,3.307.661,5.952,1.984,9.259,1.323a36.374,36.374,0,0,1,1.323,14.55V54.677c0,.661.661,1.984.661,2.645,3.307-9.259,7.275-17.856,8.6-27.777a33.507,33.507,0,0,0,8.6-1.323c0,13.227-6.613,25.131-9.92,37.7-4.629.661-9.92-.661-14.55-.661-2.645-7.936-1.323-16.534-.661-25.131-3.968,7.936-7.936,15.211-9.259,23.808-3.968-1.323-7.936-.661-11.9-.661Z" transform="translate(-130.721 -13.673)" fill="#fff"/><path d="M487.614,65.382c-13.227-.661-19.84-15.211-14.55-26.454,1.984-3.307,3.968-7.275,7.275-9.259a19.429,19.429,0,0,1,19.84.661c.661,1.323,1.984,1.984,3.307,3.307,5.291,5.291,5.291,13.888,2.645,20.5-3.307,7.275-10.582,12.566-18.518,11.243Zm0-9.259c1.984.661,3.307-.661,4.629-1.323a13.314,13.314,0,0,0,3.307-14.55c-.661-2.645-4.629-4.629-7.275-2.645-3.968,1.984-5.952,7.275-5.291,12.566.661,2.645,1.323,5.291,4.629,5.952Z" transform="translate(-159.587 -13.797)" fill="#fff"/><path d="M536.577,64.8c-1.323-5.291-.661-9.92-.661-15.211.661-7.275,2.645-13.888.661-21.163,3.307-.661,7.275-1.984,10.582.661,1.323.661.661,3.307,1.323,5.291,2.645-3.968,7.936-8.6,13.227-5.952,0,3.968.661,7.275-.661,11.243-4.629-1.984-10.581,0-12.566,3.968A38.282,38.282,0,0,0,546.5,64.8Z" transform="translate(-181.434 -13.879)" fill="#fff"/><path d="M589.76,58.485c-13.227-1.323-16.534-16.534-12.566-27.115,2.645-7.936,11.243-13.888,19.84-10.582,2.645,1.323,3.968,3.307,5.291,5.291,0-6.613.661-12.566-.661-19.179h9.92a54.38,54.38,0,0,1,1.323,17.856c-1.323,11.243-4.629,22.486-1.323,33.067A19.292,19.292,0,0,1,601,58.485a14.454,14.454,0,0,1-1.984-3.307c-2.645,1.984-5.952,3.968-9.259,3.307Zm1.984-9.259c1.984.661,5.291,0,5.952-1.984.661-4.629.661-9.259,2.645-13.888-2.645-2.645-6.613-5.291-9.92-2.645-3.307,3.307-4.629,8.6-3.968,13.227.661,2.645,1.984,4.629,5.291,5.291Z" transform="translate(-194.937 -6.9)" fill="#fff"/></g><g transform="translate(448 456)"><path d="M664.506,72.675a9.085,9.085,0,0,1-.949-.051,7.393,7.393,0,0,1-5.22-2.465A8.486,8.486,0,0,1,656,64.35c0-2.761,2.055-5.114,2.938-6l.032-.032.035-.029a8.041,8.041,0,0,1,12.845,3.8l.016.054.009.056a10.282,10.282,0,0,1-2.007,8.048A6.807,6.807,0,0,1,664.506,72.675ZM660.32,59.8A7.07,7.07,0,0,0,658,64.35a6.582,6.582,0,0,0,1.8,4.441,5.381,5.381,0,0,0,3.817,1.833h.055l.055.006a7.116,7.116,0,0,0,.782.045,4.8,4.8,0,0,0,3.836-1.719,8.368,8.368,0,0,0,1.569-6.37A6.043,6.043,0,0,0,660.32,59.8Z" transform="translate(-657 -20.04)" fill="#fff"/><path d="M700.786,53.485a19.045,19.045,0,0,1-5.062-.615,9.472,9.472,0,0,1-4.242-2.323l-.032-.032-.029-.035a16.03,16.03,0,0,1-3.354-7.223,25.367,25.367,0,0,1-.178-8.085c.393-3.533,1.133-7.021,1.849-10.4,1.728-8.142,3.359-15.832.2-23.5L689.373-.1h13.354L703,.453c2.313,4.626,2.218,9.737,2.126,14.679-.018.972-.037,1.978-.037,2.964v.042l0,.041a51.815,51.815,0,0,1-2.335,10.549c-1.178,3.962-2.291,7.705-2.291,11.853,0,1.042.512,1.394,1.492,1.976a4.465,4.465,0,0,1,1.57,1.3c1.4,1.059,1.915,2.857,2.415,4.6a17.176,17.176,0,0,0,1.03,2.919l.516,1.031-1.094.365A15.521,15.521,0,0,1,700.786,53.485Zm-7.859-4.321c1.95,1.918,5.346,2.321,7.859,2.321a15.791,15.791,0,0,0,3.921-.307c-.273-.722-.484-1.453-.689-2.168-.463-1.61-.862-3-1.8-3.629l-.221-.147L701.876,45a2.751,2.751,0,0,0-.94-.719,4.066,4.066,0,0,1-2.472-3.7c0-4.439,1.207-8.5,2.374-12.423a50.463,50.463,0,0,0,2.256-10.1c0-.991.019-1.991.037-2.959.087-4.7.17-9.153-1.653-13.194h-9.166a28.413,28.413,0,0,1,1.357,11.012,83.11,83.11,0,0,1-1.974,12.28c-.706,3.329-1.437,6.771-1.819,10.208l0,.014C689.149,41.213,690.177,45.839,692.927,49.164Z" transform="translate(-667.719 -0.9)" fill="#fff"/><path d="M739.248,60.683a13.33,13.33,0,0,1-2.809-.3,17.489,17.489,0,0,1-13.187-7.291,21.614,21.614,0,0,1-3.519-17.753l.012-.045c2.335-7.782,7.019-12.683,13.922-14.566l.067-.016a22.146,22.146,0,0,1,4.333-.434,19.738,19.738,0,0,1,11.677,3.7,18.507,18.507,0,0,1,6.973,10.008l.013.047.009.048c1.615,8.882-.036,15.856-4.906,20.726l-.032.032-.035.029a34.087,34.087,0,0,1-5.6,3.957A14.46,14.46,0,0,1,739.248,60.683Zm-17.58-24.842A19.711,19.711,0,0,0,724.862,51.9a15.52,15.52,0,0,0,11.769,6.486l.082,0,.08.018a11.344,11.344,0,0,0,2.455.275c4.42,0,8.1-2.745,11.2-5.328,4.345-4.369,5.8-10.719,4.33-18.874a17.081,17.081,0,0,0-16.713-12.208,20.137,20.137,0,0,0-3.907.388C727.992,24.355,723.79,28.789,721.668,35.841Zm14.246,15.285h-.255L735.436,51a9.639,9.639,0,0,1-4.977-8.581c-.136-4.606,2.169-9.464,5.495-11.6a4.83,4.83,0,0,1,3.35-1.2,6.894,6.894,0,0,1,3.779,1.16l.055.036.049.043c2.616,2.289,3.615,5.585,2.888,9.531a23.828,23.828,0,0,1-4.055,9l-.048.067-.059.059C740.3,51.126,737.969,51.126,735.914,51.126Zm3.389-19.51a2.862,2.862,0,0,0-2.021.7l-.081.081-.1.06c-2.766,1.729-4.764,5.988-4.648,9.908a7.849,7.849,0,0,0,3.719,6.762c1.7,0,3.281-.048,4.266-.976a21.6,21.6,0,0,0,3.664-8.125c.6-3.234-.14-5.8-2.188-7.62A4.87,4.87,0,0,0,739.3,31.616Z" transform="translate(-678.377 -7.799)" fill="#fff"/><path d="M811.926,60.508c-1.074,0-2.117-.039-3.222-.081s-2.232-.084-3.391-.084h-.858l-.13-.848c-.856-5.567.182-10.675,1.187-15.615a74.082,74.082,0,0,0,1.446-9.033,4.447,4.447,0,0,0-.923-1.8,8.166,8.166,0,0,0-3.284-.689c-.639,0-2.748.1-3.081,1.434l-.018.073-.029.069a50.889,50.889,0,0,0-3.894,24.009l.083,1.077h-1.08c-.852,0-1.7-.043-2.53-.084-.8-.04-1.628-.081-2.43-.081a11.93,11.93,0,0,0-4.589.755l-1.2.481-.161-1.286c-.805-6.441-.158-12.715.467-18.783a121.23,121.23,0,0,0,.848-12.425,8.3,8.3,0,0,0-.467-2.295c-.337-1.11-.685-2.258.1-3.042l.039-.039.043-.035a9.235,9.235,0,0,1,5.915-2.038,15.1,15.1,0,0,1,5.543,1.181c.4.078.848.369,1.126,1.2a11.585,11.585,0,0,1,.326,1.389c.037.191.076.389.117.586a20.781,20.781,0,0,1,4.111-2.339c.5-.235,1.014-.479,1.556-.75a8.182,8.182,0,0,1,3.694-.827,13.3,13.3,0,0,1,5.772,1.475,11.039,11.039,0,0,1,5.523,5.516,18.464,18.464,0,0,1,1.67,7.957v.042l0,.041c-.141,1.691-.313,3.366-.48,4.987-.623,6.064-1.212,11.791-.192,17.913l.147.881-.858.245A24.555,24.555,0,0,1,811.926,60.508Zm-5.74-2.158c.888.014,1.751.047,2.593.078,1.085.041,2.11.08,3.147.08a23.334,23.334,0,0,0,5.487-.566c-.867-6.04-.292-11.635.315-17.543.164-1.6.334-3.249.473-4.906-.011-5.66-2.255-10-6.007-11.605l-.053-.025a11.322,11.322,0,0,0-4.9-1.277,6.2,6.2,0,0,0-2.8.615c-.562.281-1.088.529-1.6.77a15.237,15.237,0,0,0-4.758,3.011l-.981.981-.62-1.241a9.891,9.891,0,0,1-.687-2.424c-.069-.352-.166-.85-.252-1.118a13.316,13.316,0,0,0-4.78-1.031,7.186,7.186,0,0,0-4.473,1.45,8.32,8.32,0,0,0,.29,1.123,9.978,9.978,0,0,1,.554,2.875,122.751,122.751,0,0,1-.858,12.63c-.6,5.822-1.169,11.342-.607,17.111a15.224,15.224,0,0,1,4.1-.485c.852,0,1.7.043,2.53.084.448.022.9.045,1.359.061a52.436,52.436,0,0,1,.58-11.624,54.012,54.012,0,0,1,3.509-12.147c.495-1.8,2.356-2.871,5-2.871a10.008,10.008,0,0,1,4.333.974l.145.073.115.115a5.911,5.911,0,0,1,1.616,3.353v.038l0,.038a75.242,75.242,0,0,1-1.484,9.329C806.511,49,805.6,53.467,806.186,58.35Z" transform="translate(-700.158 -7.758)" fill="#fff"/><path d="M863.024,61.087h-.05a18.524,18.524,0,0,1-9.014-2.82,19.945,19.945,0,0,1-6.342-6.446,21.19,21.19,0,0,1-3.05-9.273,20.413,20.413,0,0,1,1.67-9.981l.006-.013c3.409-7.386,10.371-12.158,17.738-12.158a17.779,17.779,0,0,1,5.992,1.054,14.424,14.424,0,0,1,8.388,7.774,19.92,19.92,0,0,1,1.706,8.234,23.681,23.681,0,0,1-1.561,8.44l-.2.524-.553.1a27.791,27.791,0,0,1-4.956.437c-4.641,0-9.608-1.06-15.548-3.327a6.69,6.69,0,0,0,3,5.681,13.007,13.007,0,0,0,11.59-.04l.79-.395.49.735c.3.444.582.9.885,1.392a13.914,13.914,0,0,0,3.467,4.283l1.248.832-1.248.832A27,27,0,0,1,863.024,61.087Zm-14.961-27.7a18.707,18.707,0,0,0,1.259,17.388,17.019,17.019,0,0,0,13.727,8.315A25.492,25.492,0,0,0,875.2,56a21.056,21.056,0,0,1-2.9-3.938q-.2-.318-.388-.621a15,15,0,0,1-12.644-.378l-.081-.04-.072-.054c-3.114-2.335-4.389-5.424-3.687-8.932l.236-1.179,1.116.446c6.237,2.495,11.325,3.656,16.014,3.656a26.027,26.027,0,0,0,4.04-.31,20.1,20.1,0,0,0-.292-14.591,12.466,12.466,0,0,0-7.243-6.725,15.785,15.785,0,0,0-5.32-.937C857.394,22.4,851.146,26.708,848.062,33.384Zm20.27,5.322h0a19.755,19.755,0,0,1-6.469-1.506,25.98,25.98,0,0,0-4.295-1.258l-1.623-.27.987-1.316c.161-.215.32-.431.488-.66,1.609-2.189,3.432-4.671,6.519-4.671a6.485,6.485,0,0,1,2.045.352l.067.022.064.032a14.726,14.726,0,0,1,4.228,2.833l.07.07.055.082a5.6,5.6,0,0,1,.481,5.278,1.514,1.514,0,0,1-1.2.9A8.988,8.988,0,0,1,868.332,38.707Zm-8.881-4.393c1.043.281,2.073.646,3.08,1a18.034,18.034,0,0,0,5.8,1.391h0a7.091,7.091,0,0,0,.9-.056,3.067,3.067,0,0,0,.167-1.094,3.779,3.779,0,0,0-.544-1.95,12.878,12.878,0,0,0-3.568-2.352,4.446,4.446,0,0,0-1.348-.229C862.065,31.025,860.76,32.555,859.451,34.313Z" transform="translate(-720.834 -7.841)" fill="#fff"/><path d="M914.654,53.57a10.2,10.2,0,0,1-6.167-2.193,14.48,14.48,0,0,1-4.124-5.058l-.019-.037-.015-.039c-2.917-7.293-1.06-14.829.736-22.116a83.254,83.254,0,0,0,1.846-8.805c.635-5.087-.623-9.487-1.954-14.146L904.593-.1h13.984l.207.725a51.615,51.615,0,0,1,1.5,9.438c.143,1.506.292,3.063.509,4.583l.01.07v.071c0,4.431-1.194,8.867-2.349,13.156-1.121,4.164-2.28,8.47-2.28,12.636a2.14,2.14,0,0,0,2.307,2.307h.781l.189.757a39.979,39.979,0,0,0,3.23,7.73l.516,1.031-1.093.366a18.988,18.988,0,0,1-6.2.713A9.407,9.407,0,0,1,914.654,53.57Zm-8.484-8.108c1.426,2.827,4.493,6.108,8.484,6.108A7.4,7.4,0,0,0,915.7,51.5l.07-.01h.071a21.832,21.832,0,0,0,4.513-.308,39.483,39.483,0,0,1-2.649-6.349,4.084,4.084,0,0,1-3.525-4.248c0-4.431,1.194-8.867,2.349-13.156,1.115-4.141,2.267-8.422,2.28-12.566-.218-1.543-.366-3.1-.51-4.6a54.337,54.337,0,0,0-1.24-8.353h-9.815c1.2,4.255,2.276,8.681,1.652,13.674v.008a85.983,85.983,0,0,1-1.887,9.023C905.29,31.572,903.515,38.776,906.17,45.461Z" transform="translate(-740.582 -0.9)" fill="#fff"/><path d="M937.042,73.372a2.559,2.559,0,0,1-.869-.123,1.269,1.269,0,0,1-.811-.808c-1.252-2.217-.775-4.417-.354-6.362a9.3,9.3,0,0,0,.318-3.726L935,60.745l1.577.451a7.542,7.542,0,0,0,2.068.3,4.99,4.99,0,0,0,5.255-5.266c-.647-11.616-2.533-24.618-11.585-33.023L931.02,22l1.706-.487a24.553,24.553,0,0,1,6.888-.865c1.074,0,2.117.039,3.222.081s2.232.084,3.392.084h.721l.228.684a26.292,26.292,0,0,0,3.19,5.714l.083.124.043.143c.237.79.489,1.6.732,2.378,1.406,4.506,2.848,9.128,2.637,14.039a40.705,40.705,0,0,0,5.915-20.759v-1.22l1.2.239a8.666,8.666,0,0,0,1.719.166,19.269,19.269,0,0,0,3.375-.4,22.162,22.162,0,0,1,3.969-.449h1v1a44.835,44.835,0,0,1-1.351,10.736,74.773,74.773,0,0,1-3.35,10.137l-.015.039-.019.037A204.41,204.41,0,0,1,951.017,69.34l-.051.074-.064.064a11.939,11.939,0,0,1-8.643,3.768,13.08,13.08,0,0,1-2.06-.168c-.376.008-.9.074-1.417.138A15.3,15.3,0,0,1,937.042,73.372Zm.374-9.959a15.512,15.512,0,0,1-.453,3.091c-.387,1.788-.724,3.341.093,4.869a14.5,14.5,0,0,0,1.479-.139,15.3,15.3,0,0,1,1.741-.155h.083l.082.014a11.11,11.11,0,0,0,1.82.155,9.985,9.985,0,0,0,7.166-3.12,202.435,202.435,0,0,0,15.068-25.558c2.147-5.371,4.334-11.8,4.528-19.05-.878.07-1.724.22-2.606.376a21.086,21.086,0,0,1-3.723.428c-.317,0-.627-.013-.932-.038a41.047,41.047,0,0,1-2.355,12.5,47.408,47.408,0,0,1-6.417,12.077l-1.773-.851c1.668-6.118-.065-11.672-1.9-17.553-.23-.739-.468-1.5-.7-2.255a30.894,30.894,0,0,1-3.091-5.387c-.949-.012-1.871-.047-2.768-.081-1.085-.041-2.11-.08-3.146-.08a24.707,24.707,0,0,0-4.628.384,31.631,31.631,0,0,1,4.557,6.172,40.933,40.933,0,0,1,3.593,8.612A81.247,81.247,0,0,1,945.9,56.15l0,.055a7.008,7.008,0,0,1-7.255,7.293A9.048,9.048,0,0,1,937.416,63.412Z" transform="translate(-750.469 -7.927)" fill="#fff"/><path d="M1008.038,60.619a16.768,16.768,0,0,1-2.9-.252,19.244,19.244,0,0,1-7.413-1.569,17.324,17.324,0,0,1-6.492-4.743l-.419-.5.292-.585c.255-.51.508-1.04.775-1.6,1.09-2.287,2.325-4.879,4.042-6.6l.79-.79.7.872a14.778,14.778,0,0,0,9.209,5.574,1.914,1.914,0,0,0,1.566-1.5c-.947-2.605-3.282-4.111-5.751-5.7-2.609-1.682-5.307-3.421-6.719-6.6l-.005-.012a12.2,12.2,0,0,1-.541-8.017,10.606,10.606,0,0,1,4.932-6.472l.04-.023.042-.019a21.158,21.158,0,0,1,8.7-1.861,19,19,0,0,1,14.289,6.075l.45.506-.3.606c-.255.51-.508,1.04-.775,1.6-1.09,2.287-2.325,4.879-4.042,6.6l-.981.981-.62-1.241c-.979-1.957-2.945-3.329-5.844-4.077h-2.263a1.284,1.284,0,0,0-.606.717,2.206,2.206,0,0,0,.485,1.642,28.608,28.608,0,0,0,5.465,4.357,28.048,28.048,0,0,1,5.641,4.542,9.1,9.1,0,0,1,2.321,7v.008a10.935,10.935,0,0,1-1.527,4.691,11.986,11.986,0,0,1-3.235,3.491A15.828,15.828,0,0,1,1008.038,60.619Zm-14.846-7.361a16.635,16.635,0,0,0,12.035,5.109h.09l.089.016a14.752,14.752,0,0,0,2.632.236c5.576,0,11.51-3.18,12.065-9.258.388-4.674-3.076-7.012-7.087-9.718a29.718,29.718,0,0,1-5.9-4.748l-.043-.049-.036-.054a4.065,4.065,0,0,1-.789-3.319,3.319,3.319,0,0,1,1.835-2.1l.211-.106h3l.119.03a11.119,11.119,0,0,1,6.506,3.915,30.17,30.17,0,0,0,2.809-5.064c.165-.347.325-.682.484-1.011a17.136,17.136,0,0,0-12.341-4.916,19.149,19.149,0,0,0-7.826,1.662c-4.324,2.5-5.182,8.024-3.508,11.936,1.171,2.628,3.5,4.132,5.972,5.724,2.7,1.743,5.5,3.545,6.626,6.926l.051.154v.162a3.84,3.84,0,0,1-3.645,3.645h-.083l-.082-.014a16.541,16.541,0,0,1-9.77-5.411,28.789,28.789,0,0,0-2.929,5.221C993.517,52.582,993.354,52.924,993.192,53.258Z" transform="translate(-770.449 -7.782)" fill="#fff"/><path d="M1083.8,61.1a57.956,57.956,0,0,1-6.088-.436,53.827,53.827,0,0,0-5.615-.41h-.721l-.228-.684a35.139,35.139,0,0,1-1.63-10.8c-.037-3.152.207-6.391.48-9.56-3.064,6.147-5.794,12.119-6.833,18.871l-.18,1.171-1.124-.375a17.3,17.3,0,0,0-5.636-.775c-.971,0-1.969.042-2.934.082-.986.041-2,.084-3.018.084h-.82l-.161-.8c-.759-3.794-1.237-7.741-1.7-11.558-.752-6.208-1.53-12.626-3.536-18.673-.155-.3-.358-.618-.572-.954A7.381,7.381,0,0,1,1042,22.223V21.5l.684-.228c4.122-1.374,8.776-1.374,12.882-1.374h.618l.276.553c3.074,6.148,2.722,13.27,2.344,20.173,3.181-6.362,6.444-12.931,8.37-19.351l.262-.872.892.178c.958.192,1.851.434,2.715.668a17.366,17.366,0,0,0,4.516.815,8.24,8.24,0,0,0,1.635-.161l.9-.181.253.887a37.185,37.185,0,0,1,1.361,14.895V47.5q.511-1.363,1.018-2.7c2.694-7.1,5.239-13.813,6.249-21.389l.116-.868h.875a32.413,32.413,0,0,0,8.355-1.293l1.243-.311v1.281c0,8.991-3.018,17.442-5.937,25.615-1.438,4.026-2.925,8.19-4.016,12.337l-.169.642-.657.094A21,21,0,0,1,1083.8,61.1Zm-10.969-2.836c1.666.045,3.4.231,5.094.412a56.481,56.481,0,0,0,5.875.425,20.394,20.394,0,0,0,2.055-.1c1.093-4.008,2.514-7.988,3.891-11.844,2.72-7.615,5.527-15.476,5.8-23.659a32.3,32.3,0,0,1-6.705,1.025c-1.11,7.451-3.6,14.031-6.241,20.981-.76,2-1.545,4.075-2.285,6.147l-1.942-.336a5.814,5.814,0,0,0-.279-1.006,5.583,5.583,0,0,1-.382-1.639V37.363l.01-.07a34.517,34.517,0,0,0-1.061-13.286,10.367,10.367,0,0,1-1.1.058,18.856,18.856,0,0,1-5.039-.885c-.555-.15-1.123-.3-1.7-.443-2.026,6.384-5.239,12.817-8.355,19.05L1058.5,47.67l-1.949-.316c0-2.147.124-4.413.244-6.6.356-6.5.725-13.217-1.858-18.85a40.66,40.66,0,0,0-10.861,1.037,7.032,7.032,0,0,0,1.1,2.273,13.5,13.5,0,0,1,.705,1.195l.032.064.022.067c2.086,6.259,2.88,12.805,3.647,19.136.425,3.505.863,7.121,1.518,10.594.706-.014,1.417-.044,2.112-.073.986-.041,2-.084,3.018-.084a20.781,20.781,0,0,1,5.152.552c1.361-7.488,4.63-13.975,8.08-20.823.355-.705.723-1.434,1.084-2.158l1.891.524c-.1,1.249-.208,2.516-.315,3.74C1071.489,45.1,1070.893,51.875,1072.833,58.268Z" transform="translate(-787.721 -7.673)" fill="#fff"/><path d="M1147.06,60.585a15.919,15.919,0,0,1-2.553-.207,17.556,17.556,0,0,1-8.521-2.652,18.221,18.221,0,0,1-5.87-6.05,20.575,20.575,0,0,1-.956-19.173l.021-.046.026-.043c.264-.44.524-.885.8-1.356,1.752-3,3.738-6.4,6.819-8.246l.029-.017a20.481,20.481,0,0,1,9.931-2.529,19.644,19.644,0,0,1,10.949,3.232l.221.147.119.238a5.9,5.9,0,0,0,1.671,1.766c.443.365.945.778,1.448,1.281a16.51,16.51,0,0,1,4.588,10.371,24.769,24.769,0,0,1-1.721,11.209l-.018.042a21.829,21.829,0,0,1-6.856,8.559A17.053,17.053,0,0,1,1147.06,60.585ZM1130.948,33.4a18.605,18.605,0,0,0,.883,17.248,15.483,15.483,0,0,0,12.833,7.737l.058,0,.057.009a13.916,13.916,0,0,0,2.281.19c6.205,0,12.151-4.253,15.152-10.839,2.41-6.042,2.591-14.378-2.433-19.4-.434-.434-.877-.8-1.3-1.15a8.116,8.116,0,0,1-2.055-2.166,17.682,17.682,0,0,0-9.635-2.762,18.479,18.479,0,0,0-8.945,2.269c-2.634,1.587-4.4,4.609-6.107,7.532C1131.476,32.507,1131.21,32.962,1130.948,33.4Zm14.735,17.9h0a4.361,4.361,0,0,1-1.325-.212,5.7,5.7,0,0,1-3.9-2.676,14.035,14.035,0,0,1-1.441-4l-.015-.059-.008-.06a16.264,16.264,0,0,1,.976-8.024,10.409,10.409,0,0,1,4.782-5.52,5.065,5.065,0,0,1,2.989-.951,6.291,6.291,0,0,1,3.623,1.2,5.417,5.417,0,0,1,2.144,2.949,14.2,14.2,0,0,1,.6,8.3,15.24,15.24,0,0,1-4.152,7.259l-.115.115-.145.073c-.25.125-.515.286-.8.457A6.13,6.13,0,0,1,1145.683,51.3Zm-4.714-7.316c.718,2.865,1.3,4.647,3.841,5.155l.061.012.059.02a2.352,2.352,0,0,0,.753.129,4.374,4.374,0,0,0,2.173-.86c.255-.155.518-.315.788-.459a12.32,12.32,0,0,0,2.97-13.382l-.02-.053-.014-.055a3.456,3.456,0,0,0-1.384-1.866,4.337,4.337,0,0,0-2.458-.828,3.035,3.035,0,0,0-1.863.606l-.072.054-.081.04C1142.307,34.208,1140.357,38.927,1140.97,43.988Z" transform="translate(-816.587 -7.797)" fill="#fff"/><path d="M1204.7,59.8h-11.9l-.189-.757a39.856,39.856,0,0,1-.775-11.561c.041-1.261.084-2.565.084-3.893v-.045l0-.045c.173-1.905.437-3.774.692-5.582.729-5.159,1.417-10.032,0-15.228l-.282-1.034,1.051-.21c.385-.077.776-.162,1.189-.253a22.808,22.808,0,0,1,4.809-.688,8.317,8.317,0,0,1,5.33,1.744,2.543,2.543,0,0,1,1.165,1.664,10.328,10.328,0,0,1,.237,1.919l0,.054c2.373-2.783,5.738-5.237,9.367-5.237a8.153,8.153,0,0,1,3.673.884l.553.276v.618c0,.991.043,1.956.084,2.889a22.367,22.367,0,0,1-.8,8.67l-.344,1.031-1-.428a8.857,8.857,0,0,0-3.51-.7c-3.322,0-6.5,1.708-7.749,4.158a37.411,37.411,0,0,0-1.913,20.573Zm-10.325-2h7.945a40.685,40.685,0,0,1-.311-9.922,38.043,38.043,0,0,1,2.547-10.612l.015-.039.019-.037c1.585-3.17,5.425-5.3,9.555-5.3a11.059,11.059,0,0,1,3.247.474,22.63,22.63,0,0,0,.405-6.961c-.033-.753-.068-1.526-.081-2.327a6.073,6.073,0,0,0-2.231-.429c-3.675,0-7.236,3.386-9.169,6.285l-1.134,1.7-.647-1.94a10.8,10.8,0,0,1-.417-2.737c-.049-.773-.116-1.831-.4-1.976l-.095-.047-.083-.066a6.3,6.3,0,0,0-4.154-1.363,20.969,20.969,0,0,0-4.382.642l-.2.043c1.181,5.192.506,9.968-.206,15.007-.25,1.769-.508,3.6-.677,5.438,0,1.344-.044,2.65-.085,3.913A40.563,40.563,0,0,0,1194.37,57.8Z" transform="translate(-838.434 -7.879)" fill="#fff"/><path d="M1262.358,53.919a23.262,23.262,0,0,1-4.552-.454l-.3-.059-.214-.214a10.518,10.518,0,0,1-1.639-2.514c-2.119,1.486-4.75,2.937-7.569,2.937a7.8,7.8,0,0,1-1.474-.139,15.328,15.328,0,0,1-11.866-7.341,22.017,22.017,0,0,1-3.08-10.314,26.542,26.542,0,0,1,1.584-10.783,18.711,18.711,0,0,1,6.037-8.606,16.859,16.859,0,0,1,4.576-2.611,14.87,14.87,0,0,1,5.229-.962,14.719,14.719,0,0,1,5.3,1l.045.017.043.022a11.7,11.7,0,0,1,3.882,3.133q.021-.957.047-1.892a61.045,61.045,0,0,0-.727-14.039l-.239-1.2h11.942l.174.783a55.318,55.318,0,0,1,1.34,18.184v.006c-.311,2.647-.737,5.323-1.148,7.912-1.377,8.668-2.678,16.855-.214,24.74l.276.883-.859.344A17.721,17.721,0,0,1,1262.358,53.919Zm-3.836-2.353a21.225,21.225,0,0,0,3.836.353,16.712,16.712,0,0,0,5-.719,37.637,37.637,0,0,1-1.145-11.84,117.269,117.269,0,0,1,1.564-12.889c.408-2.568.83-5.223,1.136-7.829A52.539,52.539,0,0,0,1267.778,1.9h-7.913a67.057,67.057,0,0,1,.545,13.287c-.041,1.588-.084,3.23-.084,4.892v3.3l-1.832-2.748c-1.277-1.916-2.484-3.725-4.863-4.929a12.719,12.719,0,0,0-4.537-.848c-5.992,0-11.859,4.555-13.95,10.83l-.012.035c-2.412,6.433-1.884,14.212,1.315,19.357a13.4,13.4,0,0,0,10.414,6.412l.049,0,.048.01a5.781,5.781,0,0,0,1.131.11c2.7,0,5.479-1.847,7.331-3.236l.958-.719.536,1.072A18.485,18.485,0,0,0,1258.522,51.567Zm-8.1-7.092a6.437,6.437,0,0,1-1.929-.279,7.335,7.335,0,0,1-4.122-2.2,8.521,8.521,0,0,1-1.884-3.82l-.013-.05-.007-.051a18.223,18.223,0,0,1,.525-7.526,15.094,15.094,0,0,1,3.726-6.55l.039-.039.043-.035a5.728,5.728,0,0,1,3.651-1.315c2.948,0,5.761,2.194,7.6,4.034l.479.479-.267.622c-1.429,3.334-1.782,6.634-2.157,10.129-.123,1.147-.25,2.332-.418,3.507l-.013.089-.028.086C1254.973,43.573,1252.536,44.474,1250.418,44.474Zm-5.982-6.731c.686,2.695,1.994,4,4.5,4.5l.061.012.059.02a4.373,4.373,0,0,0,1.358.2c1.331,0,2.915-.516,3.3-1.476.156-1.108.277-2.239.395-3.335A37.7,37.7,0,0,1,1256.16,27.6c-2.06-1.932-4.072-2.988-5.712-2.988a3.713,3.713,0,0,0-2.359.843C1245.227,28.348,1243.8,33.158,1244.436,37.743Z" transform="translate(-851.937 -0.9)" fill="#fff"/></g><g transform="translate(882 457)"><path d="M6.613,77.625C3.307,77.625,0,74.318,0,70.35a8.164,8.164,0,0,1,2.645-5.291,7.042,7.042,0,0,1,11.243,3.307c.661,3.968-1.323,9.92-7.275,9.259Z" transform="translate(0 -26.04)" fill="#fff"/><path d="M43.786,58.485c-3.307,0-6.613-.661-8.6-2.645-3.307-3.968-3.968-9.259-3.307-14.55C33.2,29.386,38.5,18.143,33.866,6.9H45.109c2.645,5.291,1.984,11.243,1.984,17.195-.661,7.936-4.629,14.55-4.629,22.486,0,2.645,2.645,2.645,3.307,3.968,1.984,1.323,1.984,4.629,3.307,7.275a14.562,14.562,0,0,1-5.291.661Z" transform="translate(-10.719 -6.9)" fill="#fff"/><path d="M79.576,65.384c-11.9-.661-18.518-13.227-15.872-23.808,1.984-6.613,5.952-11.9,13.227-13.888,9.92-1.984,19.179,3.307,21.824,12.566,1.323,7.275.661,14.55-4.629,19.84-3.968,3.307-8.6,6.613-14.55,5.291Zm-.661-9.259c1.984,0,3.968,0,5.291-1.323,3.307-4.629,6.613-12.566,1.323-17.195-1.984-1.323-4.629-1.323-5.952,0-5.291,3.307-7.936,14.55-.661,18.518Z" transform="translate(-21.377 -13.799)" fill="#fff"/><path d="M127.81,64.681c-1.323-10.582,1.323-20.5,1.323-31.083,0-1.984-1.323-3.968-.661-4.629,3.307-2.645,7.275-1.984,10.582-.661.661,0,.661,2.645,1.323,3.968,1.984-1.984,3.968-2.645,6.613-3.968s5.952-.661,8.6.661c4.629,1.984,6.613,7.275,6.613,12.566-.661,7.936-1.984,15.211-.661,23.147-4.629,1.323-8.6.661-13.227.661-1.323-8.6,1.984-15.872,2.645-24.47a5.014,5.014,0,0,0-1.323-2.645C146.989,36.9,142.36,36.9,141.7,39.55a51.674,51.674,0,0,0-3.968,24.47c-3.307,0-6.613-.661-9.92.661Z" transform="translate(-43.158 -13.758)" fill="#fff"/><path d="M206.024,66.087c-13.227-.661-21.163-15.211-15.872-27.115,3.968-8.6,13.227-13.888,22.486-10.582s11.243,14.55,7.936,23.147c-7.275,1.323-14.55-.661-21.163-3.307-.661,3.307.661,5.952,3.307,7.936a14.008,14.008,0,0,0,12.566,0c1.323,1.984,2.645,4.629,4.629,5.952a26.028,26.028,0,0,1-13.888,3.968Zm-5.291-25.131c3.968.661,7.936,3.307,11.9,2.645.661,0,1.323-2.645,0-4.629a13.835,13.835,0,0,0-3.968-2.645c-3.968-1.323-5.952,1.984-7.936,4.629Z" transform="translate(-63.834 -13.841)" fill="#fff"/><path d="M258.839,58.485c-4.629.661-8.6-2.645-10.582-6.613-3.968-9.92,1.323-20.5,2.645-30.422.661-5.291-.661-9.92-1.984-14.55h11.9c1.323,4.629,1.323,9.259,1.984,13.888,0,8.6-4.629,17.195-4.629,25.792a3.124,3.124,0,0,0,3.307,3.307,40.455,40.455,0,0,0,3.307,7.936,18.31,18.31,0,0,1-5.952.661Z" transform="translate(-83.582 -6.9)" fill="#fff"/><path d="M283.275,78.078c-1.323,0-3.968.661-3.968,0-1.984-3.307.661-6.613,0-9.92,4.629,1.323,8.6-1.323,8.6-5.952-.661-11.9-2.645-25.131-11.9-33.729,4.629-1.323,8.6-.661,13.227-.661a26.805,26.805,0,0,0,3.307,5.952c1.984,6.613,4.629,13.227,2.645,20.5a42.694,42.694,0,0,0,8.6-25.131c3.307.661,5.952-.661,9.259-.661,0,7.275-1.984,13.888-4.629,20.5a202.868,202.868,0,0,1-15.211,25.792,10.916,10.916,0,0,1-9.92,3.307Z" transform="translate(-93.469 -13.927)" fill="#fff"/><path d="M348.227,65.367A17.625,17.625,0,0,1,335,59.415c1.323-2.645,2.645-5.952,4.629-7.936a15.678,15.678,0,0,0,9.92,5.952,2.845,2.845,0,0,0,2.645-2.645c-1.984-5.952-9.92-6.613-12.566-12.566-1.984-4.629-.661-10.582,3.968-13.227,7.275-3.307,16.534-1.984,21.824,3.968-1.323,2.645-2.645,5.952-4.629,7.936-1.323-2.645-3.968-3.968-6.613-4.629h-2.645c-1.323.661-1.984,1.984-.661,3.968,4.629,5.291,13.888,7.275,13.227,15.211-.661,7.275-8.6,11.243-15.872,9.92Z" transform="translate(-113.449 -13.782)" fill="#fff"/><path d="M393.275,63.274c-1.984-9.92-1.984-20.5-5.291-30.422-.661-1.323-1.984-2.645-1.984-4.629,3.968-1.323,8.6-1.323,12.566-1.323,3.968,7.936,1.984,17.856,1.984,26.454l1.984-5.952c3.307-6.613,6.613-13.227,8.6-19.84,3.307.661,5.952,1.984,9.259,1.323a36.374,36.374,0,0,1,1.323,14.55V54.677c0,.661.661,1.984.661,2.645,3.307-9.259,7.275-17.856,8.6-27.777a33.507,33.507,0,0,0,8.6-1.323c0,13.227-6.613,25.131-9.92,37.7-4.629.661-9.92-.661-14.55-.661-2.645-7.936-1.323-16.534-.661-25.131-3.968,7.936-7.936,15.211-9.259,23.808-3.968-1.323-7.936-.661-11.9-.661Z" transform="translate(-130.721 -13.673)" fill="#fff"/><path d="M487.614,65.382c-13.227-.661-19.84-15.211-14.55-26.454,1.984-3.307,3.968-7.275,7.275-9.259a19.429,19.429,0,0,1,19.84.661c.661,1.323,1.984,1.984,3.307,3.307,5.291,5.291,5.291,13.888,2.645,20.5-3.307,7.275-10.582,12.566-18.518,11.243Zm0-9.259c1.984.661,3.307-.661,4.629-1.323a13.314,13.314,0,0,0,3.307-14.55c-.661-2.645-4.629-4.629-7.275-2.645-3.968,1.984-5.952,7.275-5.291,12.566.661,2.645,1.323,5.291,4.629,5.952Z" transform="translate(-159.587 -13.797)" fill="#fff"/><path d="M536.577,64.8c-1.323-5.291-.661-9.92-.661-15.211.661-7.275,2.645-13.888.661-21.163,3.307-.661,7.275-1.984,10.582.661,1.323.661.661,3.307,1.323,5.291,2.645-3.968,7.936-8.6,13.227-5.952,0,3.968.661,7.275-.661,11.243-4.629-1.984-10.581,0-12.566,3.968A38.282,38.282,0,0,0,546.5,64.8Z" transform="translate(-181.434 -13.879)" fill="#fff"/><path d="M589.76,58.485c-13.227-1.323-16.534-16.534-12.566-27.115,2.645-7.936,11.243-13.888,19.84-10.582,2.645,1.323,3.968,3.307,5.291,5.291,0-6.613.661-12.566-.661-19.179h9.92a54.38,54.38,0,0,1,1.323,17.856c-1.323,11.243-4.629,22.486-1.323,33.067A19.292,19.292,0,0,1,601,58.485a14.454,14.454,0,0,1-1.984-3.307c-2.645,1.984-5.952,3.968-9.259,3.307Zm1.984-9.259c1.984.661,5.291,0,5.952-1.984.661-4.629.661-9.259,2.645-13.888-2.645-2.645-6.613-5.291-9.92-2.645-3.307,3.307-4.629,8.6-3.968,13.227.661,2.645,1.984,4.629,5.291,5.291Z" transform="translate(-194.937 -6.9)" fill="#fff"/></g><g transform="translate(1316 456)"><path d="M664.506,72.675a9.085,9.085,0,0,1-.949-.051,7.393,7.393,0,0,1-5.22-2.465A8.486,8.486,0,0,1,656,64.35c0-2.761,2.055-5.114,2.938-6l.032-.032.035-.029a8.041,8.041,0,0,1,12.845,3.8l.016.054.009.056a10.282,10.282,0,0,1-2.007,8.048A6.807,6.807,0,0,1,664.506,72.675ZM660.32,59.8A7.07,7.07,0,0,0,658,64.35a6.582,6.582,0,0,0,1.8,4.441,5.381,5.381,0,0,0,3.817,1.833h.055l.055.006a7.116,7.116,0,0,0,.782.045,4.8,4.8,0,0,0,3.836-1.719,8.368,8.368,0,0,0,1.569-6.37A6.043,6.043,0,0,0,660.32,59.8Z" transform="translate(-657 -20.04)" fill="#fff"/><path d="M700.786,53.485a19.045,19.045,0,0,1-5.062-.615,9.472,9.472,0,0,1-4.242-2.323l-.032-.032-.029-.035a16.03,16.03,0,0,1-3.354-7.223,25.367,25.367,0,0,1-.178-8.085c.393-3.533,1.133-7.021,1.849-10.4,1.728-8.142,3.359-15.832.2-23.5L689.373-.1h13.354L703,.453c2.313,4.626,2.218,9.737,2.126,14.679-.018.972-.037,1.978-.037,2.964v.042l0,.041a51.815,51.815,0,0,1-2.335,10.549c-1.178,3.962-2.291,7.705-2.291,11.853,0,1.042.512,1.394,1.492,1.976a4.465,4.465,0,0,1,1.57,1.3c1.4,1.059,1.915,2.857,2.415,4.6a17.176,17.176,0,0,0,1.03,2.919l.516,1.031-1.094.365A15.521,15.521,0,0,1,700.786,53.485Zm-7.859-4.321c1.95,1.918,5.346,2.321,7.859,2.321a15.791,15.791,0,0,0,3.921-.307c-.273-.722-.484-1.453-.689-2.168-.463-1.61-.862-3-1.8-3.629l-.221-.147L701.876,45a2.751,2.751,0,0,0-.94-.719,4.066,4.066,0,0,1-2.472-3.7c0-4.439,1.207-8.5,2.374-12.423a50.463,50.463,0,0,0,2.256-10.1c0-.991.019-1.991.037-2.959.087-4.7.17-9.153-1.653-13.194h-9.166a28.413,28.413,0,0,1,1.357,11.012,83.11,83.11,0,0,1-1.974,12.28c-.706,3.329-1.437,6.771-1.819,10.208l0,.014C689.149,41.213,690.177,45.839,692.927,49.164Z" transform="translate(-667.719 -0.9)" fill="#fff"/><path d="M739.248,60.683a13.33,13.33,0,0,1-2.809-.3,17.489,17.489,0,0,1-13.187-7.291,21.614,21.614,0,0,1-3.519-17.753l.012-.045c2.335-7.782,7.019-12.683,13.922-14.566l.067-.016a22.146,22.146,0,0,1,4.333-.434,19.738,19.738,0,0,1,11.677,3.7,18.507,18.507,0,0,1,6.973,10.008l.013.047.009.048c1.615,8.882-.036,15.856-4.906,20.726l-.032.032-.035.029a34.087,34.087,0,0,1-5.6,3.957A14.46,14.46,0,0,1,739.248,60.683Zm-17.58-24.842A19.711,19.711,0,0,0,724.862,51.9a15.52,15.52,0,0,0,11.769,6.486l.082,0,.08.018a11.344,11.344,0,0,0,2.455.275c4.42,0,8.1-2.745,11.2-5.328,4.345-4.369,5.8-10.719,4.33-18.874a17.081,17.081,0,0,0-16.713-12.208,20.137,20.137,0,0,0-3.907.388C727.992,24.355,723.79,28.789,721.668,35.841Zm14.246,15.285h-.255L735.436,51a9.639,9.639,0,0,1-4.977-8.581c-.136-4.606,2.169-9.464,5.495-11.6a4.83,4.83,0,0,1,3.35-1.2,6.894,6.894,0,0,1,3.779,1.16l.055.036.049.043c2.616,2.289,3.615,5.585,2.888,9.531a23.828,23.828,0,0,1-4.055,9l-.048.067-.059.059C740.3,51.126,737.969,51.126,735.914,51.126Zm3.389-19.51a2.862,2.862,0,0,0-2.021.7l-.081.081-.1.06c-2.766,1.729-4.764,5.988-4.648,9.908a7.849,7.849,0,0,0,3.719,6.762c1.7,0,3.281-.048,4.266-.976a21.6,21.6,0,0,0,3.664-8.125c.6-3.234-.14-5.8-2.188-7.62A4.87,4.87,0,0,0,739.3,31.616Z" transform="translate(-678.377 -7.799)" fill="#fff"/><path d="M811.926,60.508c-1.074,0-2.117-.039-3.222-.081s-2.232-.084-3.391-.084h-.858l-.13-.848c-.856-5.567.182-10.675,1.187-15.615a74.082,74.082,0,0,0,1.446-9.033,4.447,4.447,0,0,0-.923-1.8,8.166,8.166,0,0,0-3.284-.689c-.639,0-2.748.1-3.081,1.434l-.018.073-.029.069a50.889,50.889,0,0,0-3.894,24.009l.083,1.077h-1.08c-.852,0-1.7-.043-2.53-.084-.8-.04-1.628-.081-2.43-.081a11.93,11.93,0,0,0-4.589.755l-1.2.481-.161-1.286c-.805-6.441-.158-12.715.467-18.783a121.23,121.23,0,0,0,.848-12.425,8.3,8.3,0,0,0-.467-2.295c-.337-1.11-.685-2.258.1-3.042l.039-.039.043-.035a9.235,9.235,0,0,1,5.915-2.038,15.1,15.1,0,0,1,5.543,1.181c.4.078.848.369,1.126,1.2a11.585,11.585,0,0,1,.326,1.389c.037.191.076.389.117.586a20.781,20.781,0,0,1,4.111-2.339c.5-.235,1.014-.479,1.556-.75a8.182,8.182,0,0,1,3.694-.827,13.3,13.3,0,0,1,5.772,1.475,11.039,11.039,0,0,1,5.523,5.516,18.464,18.464,0,0,1,1.67,7.957v.042l0,.041c-.141,1.691-.313,3.366-.48,4.987-.623,6.064-1.212,11.791-.192,17.913l.147.881-.858.245A24.555,24.555,0,0,1,811.926,60.508Zm-5.74-2.158c.888.014,1.751.047,2.593.078,1.085.041,2.11.08,3.147.08a23.334,23.334,0,0,0,5.487-.566c-.867-6.04-.292-11.635.315-17.543.164-1.6.334-3.249.473-4.906-.011-5.66-2.255-10-6.007-11.605l-.053-.025a11.322,11.322,0,0,0-4.9-1.277,6.2,6.2,0,0,0-2.8.615c-.562.281-1.088.529-1.6.77a15.237,15.237,0,0,0-4.758,3.011l-.981.981-.62-1.241a9.891,9.891,0,0,1-.687-2.424c-.069-.352-.166-.85-.252-1.118a13.316,13.316,0,0,0-4.78-1.031,7.186,7.186,0,0,0-4.473,1.45,8.32,8.32,0,0,0,.29,1.123,9.978,9.978,0,0,1,.554,2.875,122.751,122.751,0,0,1-.858,12.63c-.6,5.822-1.169,11.342-.607,17.111a15.224,15.224,0,0,1,4.1-.485c.852,0,1.7.043,2.53.084.448.022.9.045,1.359.061a52.436,52.436,0,0,1,.58-11.624,54.012,54.012,0,0,1,3.509-12.147c.495-1.8,2.356-2.871,5-2.871a10.008,10.008,0,0,1,4.333.974l.145.073.115.115a5.911,5.911,0,0,1,1.616,3.353v.038l0,.038a75.242,75.242,0,0,1-1.484,9.329C806.511,49,805.6,53.467,806.186,58.35Z" transform="translate(-700.158 -7.758)" fill="#fff"/><path d="M863.024,61.087h-.05a18.524,18.524,0,0,1-9.014-2.82,19.945,19.945,0,0,1-6.342-6.446,21.19,21.19,0,0,1-3.05-9.273,20.413,20.413,0,0,1,1.67-9.981l.006-.013c3.409-7.386,10.371-12.158,17.738-12.158a17.779,17.779,0,0,1,5.992,1.054,14.424,14.424,0,0,1,8.388,7.774,19.92,19.92,0,0,1,1.706,8.234,23.681,23.681,0,0,1-1.561,8.44l-.2.524-.553.1a27.791,27.791,0,0,1-4.956.437c-4.641,0-9.608-1.06-15.548-3.327a6.69,6.69,0,0,0,3,5.681,13.007,13.007,0,0,0,11.59-.04l.79-.395.49.735c.3.444.582.9.885,1.392a13.914,13.914,0,0,0,3.467,4.283l1.248.832-1.248.832A27,27,0,0,1,863.024,61.087Zm-14.961-27.7a18.707,18.707,0,0,0,1.259,17.388,17.019,17.019,0,0,0,13.727,8.315A25.492,25.492,0,0,0,875.2,56a21.056,21.056,0,0,1-2.9-3.938q-.2-.318-.388-.621a15,15,0,0,1-12.644-.378l-.081-.04-.072-.054c-3.114-2.335-4.389-5.424-3.687-8.932l.236-1.179,1.116.446c6.237,2.495,11.325,3.656,16.014,3.656a26.027,26.027,0,0,0,4.04-.31,20.1,20.1,0,0,0-.292-14.591,12.466,12.466,0,0,0-7.243-6.725,15.785,15.785,0,0,0-5.32-.937C857.394,22.4,851.146,26.708,848.062,33.384Zm20.27,5.322h0a19.755,19.755,0,0,1-6.469-1.506,25.98,25.98,0,0,0-4.295-1.258l-1.623-.27.987-1.316c.161-.215.32-.431.488-.66,1.609-2.189,3.432-4.671,6.519-4.671a6.485,6.485,0,0,1,2.045.352l.067.022.064.032a14.726,14.726,0,0,1,4.228,2.833l.07.07.055.082a5.6,5.6,0,0,1,.481,5.278,1.514,1.514,0,0,1-1.2.9A8.988,8.988,0,0,1,868.332,38.707Zm-8.881-4.393c1.043.281,2.073.646,3.08,1a18.034,18.034,0,0,0,5.8,1.391h0a7.091,7.091,0,0,0,.9-.056,3.067,3.067,0,0,0,.167-1.094,3.779,3.779,0,0,0-.544-1.95,12.878,12.878,0,0,0-3.568-2.352,4.446,4.446,0,0,0-1.348-.229C862.065,31.025,860.76,32.555,859.451,34.313Z" transform="translate(-720.834 -7.841)" fill="#fff"/><path d="M914.654,53.57a10.2,10.2,0,0,1-6.167-2.193,14.48,14.48,0,0,1-4.124-5.058l-.019-.037-.015-.039c-2.917-7.293-1.06-14.829.736-22.116a83.254,83.254,0,0,0,1.846-8.805c.635-5.087-.623-9.487-1.954-14.146L904.593-.1h13.984l.207.725a51.615,51.615,0,0,1,1.5,9.438c.143,1.506.292,3.063.509,4.583l.01.07v.071c0,4.431-1.194,8.867-2.349,13.156-1.121,4.164-2.28,8.47-2.28,12.636a2.14,2.14,0,0,0,2.307,2.307h.781l.189.757a39.979,39.979,0,0,0,3.23,7.73l.516,1.031-1.093.366a18.988,18.988,0,0,1-6.2.713A9.407,9.407,0,0,1,914.654,53.57Zm-8.484-8.108c1.426,2.827,4.493,6.108,8.484,6.108A7.4,7.4,0,0,0,915.7,51.5l.07-.01h.071a21.832,21.832,0,0,0,4.513-.308,39.483,39.483,0,0,1-2.649-6.349,4.084,4.084,0,0,1-3.525-4.248c0-4.431,1.194-8.867,2.349-13.156,1.115-4.141,2.267-8.422,2.28-12.566-.218-1.543-.366-3.1-.51-4.6a54.337,54.337,0,0,0-1.24-8.353h-9.815c1.2,4.255,2.276,8.681,1.652,13.674v.008a85.983,85.983,0,0,1-1.887,9.023C905.29,31.572,903.515,38.776,906.17,45.461Z" transform="translate(-740.582 -0.9)" fill="#fff"/><path d="M937.042,73.372a2.559,2.559,0,0,1-.869-.123,1.269,1.269,0,0,1-.811-.808c-1.252-2.217-.775-4.417-.354-6.362a9.3,9.3,0,0,0,.318-3.726L935,60.745l1.577.451a7.542,7.542,0,0,0,2.068.3,4.99,4.99,0,0,0,5.255-5.266c-.647-11.616-2.533-24.618-11.585-33.023L931.02,22l1.706-.487a24.553,24.553,0,0,1,6.888-.865c1.074,0,2.117.039,3.222.081s2.232.084,3.392.084h.721l.228.684a26.292,26.292,0,0,0,3.19,5.714l.083.124.043.143c.237.79.489,1.6.732,2.378,1.406,4.506,2.848,9.128,2.637,14.039a40.705,40.705,0,0,0,5.915-20.759v-1.22l1.2.239a8.666,8.666,0,0,0,1.719.166,19.269,19.269,0,0,0,3.375-.4,22.162,22.162,0,0,1,3.969-.449h1v1a44.835,44.835,0,0,1-1.351,10.736,74.773,74.773,0,0,1-3.35,10.137l-.015.039-.019.037A204.41,204.41,0,0,1,951.017,69.34l-.051.074-.064.064a11.939,11.939,0,0,1-8.643,3.768,13.08,13.08,0,0,1-2.06-.168c-.376.008-.9.074-1.417.138A15.3,15.3,0,0,1,937.042,73.372Zm.374-9.959a15.512,15.512,0,0,1-.453,3.091c-.387,1.788-.724,3.341.093,4.869a14.5,14.5,0,0,0,1.479-.139,15.3,15.3,0,0,1,1.741-.155h.083l.082.014a11.11,11.11,0,0,0,1.82.155,9.985,9.985,0,0,0,7.166-3.12,202.435,202.435,0,0,0,15.068-25.558c2.147-5.371,4.334-11.8,4.528-19.05-.878.07-1.724.22-2.606.376a21.086,21.086,0,0,1-3.723.428c-.317,0-.627-.013-.932-.038a41.047,41.047,0,0,1-2.355,12.5,47.408,47.408,0,0,1-6.417,12.077l-1.773-.851c1.668-6.118-.065-11.672-1.9-17.553-.23-.739-.468-1.5-.7-2.255a30.894,30.894,0,0,1-3.091-5.387c-.949-.012-1.871-.047-2.768-.081-1.085-.041-2.11-.08-3.146-.08a24.707,24.707,0,0,0-4.628.384,31.631,31.631,0,0,1,4.557,6.172,40.933,40.933,0,0,1,3.593,8.612A81.247,81.247,0,0,1,945.9,56.15l0,.055a7.008,7.008,0,0,1-7.255,7.293A9.048,9.048,0,0,1,937.416,63.412Z" transform="translate(-750.469 -7.927)" fill="#fff"/><path d="M1008.038,60.619a16.768,16.768,0,0,1-2.9-.252,19.244,19.244,0,0,1-7.413-1.569,17.324,17.324,0,0,1-6.492-4.743l-.419-.5.292-.585c.255-.51.508-1.04.775-1.6,1.09-2.287,2.325-4.879,4.042-6.6l.79-.79.7.872a14.778,14.778,0,0,0,9.209,5.574,1.914,1.914,0,0,0,1.566-1.5c-.947-2.605-3.282-4.111-5.751-5.7-2.609-1.682-5.307-3.421-6.719-6.6l-.005-.012a12.2,12.2,0,0,1-.541-8.017,10.606,10.606,0,0,1,4.932-6.472l.04-.023.042-.019a21.158,21.158,0,0,1,8.7-1.861,19,19,0,0,1,14.289,6.075l.45.506-.3.606c-.255.51-.508,1.04-.775,1.6-1.09,2.287-2.325,4.879-4.042,6.6l-.981.981-.62-1.241c-.979-1.957-2.945-3.329-5.844-4.077h-2.263a1.284,1.284,0,0,0-.606.717,2.206,2.206,0,0,0,.485,1.642,28.608,28.608,0,0,0,5.465,4.357,28.048,28.048,0,0,1,5.641,4.542,9.1,9.1,0,0,1,2.321,7v.008a10.935,10.935,0,0,1-1.527,4.691,11.986,11.986,0,0,1-3.235,3.491A15.828,15.828,0,0,1,1008.038,60.619Zm-14.846-7.361a16.635,16.635,0,0,0,12.035,5.109h.09l.089.016a14.752,14.752,0,0,0,2.632.236c5.576,0,11.51-3.18,12.065-9.258.388-4.674-3.076-7.012-7.087-9.718a29.718,29.718,0,0,1-5.9-4.748l-.043-.049-.036-.054a4.065,4.065,0,0,1-.789-3.319,3.319,3.319,0,0,1,1.835-2.1l.211-.106h3l.119.03a11.119,11.119,0,0,1,6.506,3.915,30.17,30.17,0,0,0,2.809-5.064c.165-.347.325-.682.484-1.011a17.136,17.136,0,0,0-12.341-4.916,19.149,19.149,0,0,0-7.826,1.662c-4.324,2.5-5.182,8.024-3.508,11.936,1.171,2.628,3.5,4.132,5.972,5.724,2.7,1.743,5.5,3.545,6.626,6.926l.051.154v.162a3.84,3.84,0,0,1-3.645,3.645h-.083l-.082-.014a16.541,16.541,0,0,1-9.77-5.411,28.789,28.789,0,0,0-2.929,5.221C993.517,52.582,993.354,52.924,993.192,53.258Z" transform="translate(-770.449 -7.782)" fill="#fff"/><path d="M1083.8,61.1a57.956,57.956,0,0,1-6.088-.436,53.827,53.827,0,0,0-5.615-.41h-.721l-.228-.684a35.139,35.139,0,0,1-1.63-10.8c-.037-3.152.207-6.391.48-9.56-3.064,6.147-5.794,12.119-6.833,18.871l-.18,1.171-1.124-.375a17.3,17.3,0,0,0-5.636-.775c-.971,0-1.969.042-2.934.082-.986.041-2,.084-3.018.084h-.82l-.161-.8c-.759-3.794-1.237-7.741-1.7-11.558-.752-6.208-1.53-12.626-3.536-18.673-.155-.3-.358-.618-.572-.954A7.381,7.381,0,0,1,1042,22.223V21.5l.684-.228c4.122-1.374,8.776-1.374,12.882-1.374h.618l.276.553c3.074,6.148,2.722,13.27,2.344,20.173,3.181-6.362,6.444-12.931,8.37-19.351l.262-.872.892.178c.958.192,1.851.434,2.715.668a17.366,17.366,0,0,0,4.516.815,8.24,8.24,0,0,0,1.635-.161l.9-.181.253.887a37.185,37.185,0,0,1,1.361,14.895V47.5q.511-1.363,1.018-2.7c2.694-7.1,5.239-13.813,6.249-21.389l.116-.868h.875a32.413,32.413,0,0,0,8.355-1.293l1.243-.311v1.281c0,8.991-3.018,17.442-5.937,25.615-1.438,4.026-2.925,8.19-4.016,12.337l-.169.642-.657.094A21,21,0,0,1,1083.8,61.1Zm-10.969-2.836c1.666.045,3.4.231,5.094.412a56.481,56.481,0,0,0,5.875.425,20.394,20.394,0,0,0,2.055-.1c1.093-4.008,2.514-7.988,3.891-11.844,2.72-7.615,5.527-15.476,5.8-23.659a32.3,32.3,0,0,1-6.705,1.025c-1.11,7.451-3.6,14.031-6.241,20.981-.76,2-1.545,4.075-2.285,6.147l-1.942-.336a5.814,5.814,0,0,0-.279-1.006,5.583,5.583,0,0,1-.382-1.639V37.363l.01-.07a34.517,34.517,0,0,0-1.061-13.286,10.367,10.367,0,0,1-1.1.058,18.856,18.856,0,0,1-5.039-.885c-.555-.15-1.123-.3-1.7-.443-2.026,6.384-5.239,12.817-8.355,19.05L1058.5,47.67l-1.949-.316c0-2.147.124-4.413.244-6.6.356-6.5.725-13.217-1.858-18.85a40.66,40.66,0,0,0-10.861,1.037,7.032,7.032,0,0,0,1.1,2.273,13.5,13.5,0,0,1,.705,1.195l.032.064.022.067c2.086,6.259,2.88,12.805,3.647,19.136.425,3.505.863,7.121,1.518,10.594.706-.014,1.417-.044,2.112-.073.986-.041,2-.084,3.018-.084a20.781,20.781,0,0,1,5.152.552c1.361-7.488,4.63-13.975,8.08-20.823.355-.705.723-1.434,1.084-2.158l1.891.524c-.1,1.249-.208,2.516-.315,3.74C1071.489,45.1,1070.893,51.875,1072.833,58.268Z" transform="translate(-787.721 -7.673)" fill="#fff"/><path d="M1147.06,60.585a15.919,15.919,0,0,1-2.553-.207,17.556,17.556,0,0,1-8.521-2.652,18.221,18.221,0,0,1-5.87-6.05,20.575,20.575,0,0,1-.956-19.173l.021-.046.026-.043c.264-.44.524-.885.8-1.356,1.752-3,3.738-6.4,6.819-8.246l.029-.017a20.481,20.481,0,0,1,9.931-2.529,19.644,19.644,0,0,1,10.949,3.232l.221.147.119.238a5.9,5.9,0,0,0,1.671,1.766c.443.365.945.778,1.448,1.281a16.51,16.51,0,0,1,4.588,10.371,24.769,24.769,0,0,1-1.721,11.209l-.018.042a21.829,21.829,0,0,1-6.856,8.559A17.053,17.053,0,0,1,1147.06,60.585ZM1130.948,33.4a18.605,18.605,0,0,0,.883,17.248,15.483,15.483,0,0,0,12.833,7.737l.058,0,.057.009a13.916,13.916,0,0,0,2.281.19c6.205,0,12.151-4.253,15.152-10.839,2.41-6.042,2.591-14.378-2.433-19.4-.434-.434-.877-.8-1.3-1.15a8.116,8.116,0,0,1-2.055-2.166,17.682,17.682,0,0,0-9.635-2.762,18.479,18.479,0,0,0-8.945,2.269c-2.634,1.587-4.4,4.609-6.107,7.532C1131.476,32.507,1131.21,32.962,1130.948,33.4Zm14.735,17.9h0a4.361,4.361,0,0,1-1.325-.212,5.7,5.7,0,0,1-3.9-2.676,14.035,14.035,0,0,1-1.441-4l-.015-.059-.008-.06a16.264,16.264,0,0,1,.976-8.024,10.409,10.409,0,0,1,4.782-5.52,5.065,5.065,0,0,1,2.989-.951,6.291,6.291,0,0,1,3.623,1.2,5.417,5.417,0,0,1,2.144,2.949,14.2,14.2,0,0,1,.6,8.3,15.24,15.24,0,0,1-4.152,7.259l-.115.115-.145.073c-.25.125-.515.286-.8.457A6.13,6.13,0,0,1,1145.683,51.3Zm-4.714-7.316c.718,2.865,1.3,4.647,3.841,5.155l.061.012.059.02a2.352,2.352,0,0,0,.753.129,4.374,4.374,0,0,0,2.173-.86c.255-.155.518-.315.788-.459a12.32,12.32,0,0,0,2.97-13.382l-.02-.053-.014-.055a3.456,3.456,0,0,0-1.384-1.866,4.337,4.337,0,0,0-2.458-.828,3.035,3.035,0,0,0-1.863.606l-.072.054-.081.04C1142.307,34.208,1140.357,38.927,1140.97,43.988Z" transform="translate(-816.587 -7.797)" fill="#fff"/><path d="M1204.7,59.8h-11.9l-.189-.757a39.856,39.856,0,0,1-.775-11.561c.041-1.261.084-2.565.084-3.893v-.045l0-.045c.173-1.905.437-3.774.692-5.582.729-5.159,1.417-10.032,0-15.228l-.282-1.034,1.051-.21c.385-.077.776-.162,1.189-.253a22.808,22.808,0,0,1,4.809-.688,8.317,8.317,0,0,1,5.33,1.744,2.543,2.543,0,0,1,1.165,1.664,10.328,10.328,0,0,1,.237,1.919l0,.054c2.373-2.783,5.738-5.237,9.367-5.237a8.153,8.153,0,0,1,3.673.884l.553.276v.618c0,.991.043,1.956.084,2.889a22.367,22.367,0,0,1-.8,8.67l-.344,1.031-1-.428a8.857,8.857,0,0,0-3.51-.7c-3.322,0-6.5,1.708-7.749,4.158a37.411,37.411,0,0,0-1.913,20.573Zm-10.325-2h7.945a40.685,40.685,0,0,1-.311-9.922,38.043,38.043,0,0,1,2.547-10.612l.015-.039.019-.037c1.585-3.17,5.425-5.3,9.555-5.3a11.059,11.059,0,0,1,3.247.474,22.63,22.63,0,0,0,.405-6.961c-.033-.753-.068-1.526-.081-2.327a6.073,6.073,0,0,0-2.231-.429c-3.675,0-7.236,3.386-9.169,6.285l-1.134,1.7-.647-1.94a10.8,10.8,0,0,1-.417-2.737c-.049-.773-.116-1.831-.4-1.976l-.095-.047-.083-.066a6.3,6.3,0,0,0-4.154-1.363,20.969,20.969,0,0,0-4.382.642l-.2.043c1.181,5.192.506,9.968-.206,15.007-.25,1.769-.508,3.6-.677,5.438,0,1.344-.044,2.65-.085,3.913A40.563,40.563,0,0,0,1194.37,57.8Z" transform="translate(-838.434 -7.879)" fill="#fff"/><path d="M1262.358,53.919a23.262,23.262,0,0,1-4.552-.454l-.3-.059-.214-.214a10.518,10.518,0,0,1-1.639-2.514c-2.119,1.486-4.75,2.937-7.569,2.937a7.8,7.8,0,0,1-1.474-.139,15.328,15.328,0,0,1-11.866-7.341,22.017,22.017,0,0,1-3.08-10.314,26.542,26.542,0,0,1,1.584-10.783,18.711,18.711,0,0,1,6.037-8.606,16.859,16.859,0,0,1,4.576-2.611,14.87,14.87,0,0,1,5.229-.962,14.719,14.719,0,0,1,5.3,1l.045.017.043.022a11.7,11.7,0,0,1,3.882,3.133q.021-.957.047-1.892a61.045,61.045,0,0,0-.727-14.039l-.239-1.2h11.942l.174.783a55.318,55.318,0,0,1,1.34,18.184v.006c-.311,2.647-.737,5.323-1.148,7.912-1.377,8.668-2.678,16.855-.214,24.74l.276.883-.859.344A17.721,17.721,0,0,1,1262.358,53.919Zm-3.836-2.353a21.225,21.225,0,0,0,3.836.353,16.712,16.712,0,0,0,5-.719,37.637,37.637,0,0,1-1.145-11.84,117.269,117.269,0,0,1,1.564-12.889c.408-2.568.83-5.223,1.136-7.829A52.539,52.539,0,0,0,1267.778,1.9h-7.913a67.057,67.057,0,0,1,.545,13.287c-.041,1.588-.084,3.23-.084,4.892v3.3l-1.832-2.748c-1.277-1.916-2.484-3.725-4.863-4.929a12.719,12.719,0,0,0-4.537-.848c-5.992,0-11.859,4.555-13.95,10.83l-.012.035c-2.412,6.433-1.884,14.212,1.315,19.357a13.4,13.4,0,0,0,10.414,6.412l.049,0,.048.01a5.781,5.781,0,0,0,1.131.11c2.7,0,5.479-1.847,7.331-3.236l.958-.719.536,1.072A18.485,18.485,0,0,0,1258.522,51.567Zm-8.1-7.092a6.437,6.437,0,0,1-1.929-.279,7.335,7.335,0,0,1-4.122-2.2,8.521,8.521,0,0,1-1.884-3.82l-.013-.05-.007-.051a18.223,18.223,0,0,1,.525-7.526,15.094,15.094,0,0,1,3.726-6.55l.039-.039.043-.035a5.728,5.728,0,0,1,3.651-1.315c2.948,0,5.761,2.194,7.6,4.034l.479.479-.267.622c-1.429,3.334-1.782,6.634-2.157,10.129-.123,1.147-.25,2.332-.418,3.507l-.013.089-.028.086C1254.973,43.573,1252.536,44.474,1250.418,44.474Zm-5.982-6.731c.686,2.695,1.994,4,4.5,4.5l.061.012.059.02a4.373,4.373,0,0,0,1.358.2c1.331,0,2.915-.516,3.3-1.476.156-1.108.277-2.239.395-3.335A37.7,37.7,0,0,1,1256.16,27.6c-2.06-1.932-4.072-2.988-5.712-2.988a3.713,3.713,0,0,0-2.359.843C1245.227,28.348,1243.8,33.158,1244.436,37.743Z" transform="translate(-851.937 -0.9)" fill="#fff"/></g><g transform="translate(1750 457)"><path d="M6.613,77.625C3.307,77.625,0,74.318,0,70.35a8.164,8.164,0,0,1,2.645-5.291,7.042,7.042,0,0,1,11.243,3.307c.661,3.968-1.323,9.92-7.275,9.259Z" transform="translate(0 -26.04)" fill="#fff"/><path d="M43.786,58.485c-3.307,0-6.613-.661-8.6-2.645-3.307-3.968-3.968-9.259-3.307-14.55C33.2,29.386,38.5,18.143,33.866,6.9H45.109c2.645,5.291,1.984,11.243,1.984,17.195-.661,7.936-4.629,14.55-4.629,22.486,0,2.645,2.645,2.645,3.307,3.968,1.984,1.323,1.984,4.629,3.307,7.275a14.562,14.562,0,0,1-5.291.661Z" transform="translate(-10.719 -6.9)" fill="#fff"/><path d="M79.576,65.384c-11.9-.661-18.518-13.227-15.872-23.808,1.984-6.613,5.952-11.9,13.227-13.888,9.92-1.984,19.179,3.307,21.824,12.566,1.323,7.275.661,14.55-4.629,19.84-3.968,3.307-8.6,6.613-14.55,5.291Zm-.661-9.259c1.984,0,3.968,0,5.291-1.323,3.307-4.629,6.613-12.566,1.323-17.195-1.984-1.323-4.629-1.323-5.952,0-5.291,3.307-7.936,14.55-.661,18.518Z" transform="translate(-21.377 -13.799)" fill="#fff"/><path d="M127.81,64.681c-1.323-10.582,1.323-20.5,1.323-31.083,0-1.984-1.323-3.968-.661-4.629,3.307-2.645,7.275-1.984,10.582-.661.661,0,.661,2.645,1.323,3.968,1.984-1.984,3.968-2.645,6.613-3.968s5.952-.661,8.6.661c4.629,1.984,6.613,7.275,6.613,12.566-.661,7.936-1.984,15.211-.661,23.147-4.629,1.323-8.6.661-13.227.661-1.323-8.6,1.984-15.872,2.645-24.47a5.014,5.014,0,0,0-1.323-2.645C146.989,36.9,142.36,36.9,141.7,39.55a51.674,51.674,0,0,0-3.968,24.47c-3.307,0-6.613-.661-9.92.661Z" transform="translate(-43.158 -13.758)" fill="#fff"/><path d="M206.024,66.087c-13.227-.661-21.163-15.211-15.872-27.115,3.968-8.6,13.227-13.888,22.486-10.582s11.243,14.55,7.936,23.147c-7.275,1.323-14.55-.661-21.163-3.307-.661,3.307.661,5.952,3.307,7.936a14.008,14.008,0,0,0,12.566,0c1.323,1.984,2.645,4.629,4.629,5.952a26.028,26.028,0,0,1-13.888,3.968Zm-5.291-25.131c3.968.661,7.936,3.307,11.9,2.645.661,0,1.323-2.645,0-4.629a13.835,13.835,0,0,0-3.968-2.645c-3.968-1.323-5.952,1.984-7.936,4.629Z" transform="translate(-63.834 -13.841)" fill="#fff"/><path d="M258.839,58.485c-4.629.661-8.6-2.645-10.582-6.613-3.968-9.92,1.323-20.5,2.645-30.422.661-5.291-.661-9.92-1.984-14.55h11.9c1.323,4.629,1.323,9.259,1.984,13.888,0,8.6-4.629,17.195-4.629,25.792a3.124,3.124,0,0,0,3.307,3.307,40.455,40.455,0,0,0,3.307,7.936,18.31,18.31,0,0,1-5.952.661Z" transform="translate(-83.582 -6.9)" fill="#fff"/><path d="M283.275,78.078c-1.323,0-3.968.661-3.968,0-1.984-3.307.661-6.613,0-9.92,4.629,1.323,8.6-1.323,8.6-5.952-.661-11.9-2.645-25.131-11.9-33.729,4.629-1.323,8.6-.661,13.227-.661a26.805,26.805,0,0,0,3.307,5.952c1.984,6.613,4.629,13.227,2.645,20.5a42.694,42.694,0,0,0,8.6-25.131c3.307.661,5.952-.661,9.259-.661,0,7.275-1.984,13.888-4.629,20.5a202.868,202.868,0,0,1-15.211,25.792,10.916,10.916,0,0,1-9.92,3.307Z" transform="translate(-93.469 -13.927)" fill="#fff"/><path d="M348.227,65.367A17.625,17.625,0,0,1,335,59.415c1.323-2.645,2.645-5.952,4.629-7.936a15.678,15.678,0,0,0,9.92,5.952,2.845,2.845,0,0,0,2.645-2.645c-1.984-5.952-9.92-6.613-12.566-12.566-1.984-4.629-.661-10.582,3.968-13.227,7.275-3.307,16.534-1.984,21.824,3.968-1.323,2.645-2.645,5.952-4.629,7.936-1.323-2.645-3.968-3.968-6.613-4.629h-2.645c-1.323.661-1.984,1.984-.661,3.968,4.629,5.291,13.888,7.275,13.227,15.211-.661,7.275-8.6,11.243-15.872,9.92Z" transform="translate(-113.449 -13.782)" fill="#fff"/><path d="M393.275,63.274c-1.984-9.92-1.984-20.5-5.291-30.422-.661-1.323-1.984-2.645-1.984-4.629,3.968-1.323,8.6-1.323,12.566-1.323,3.968,7.936,1.984,17.856,1.984,26.454l1.984-5.952c3.307-6.613,6.613-13.227,8.6-19.84,3.307.661,5.952,1.984,9.259,1.323a36.374,36.374,0,0,1,1.323,14.55V54.677c0,.661.661,1.984.661,2.645,3.307-9.259,7.275-17.856,8.6-27.777a33.507,33.507,0,0,0,8.6-1.323c0,13.227-6.613,25.131-9.92,37.7-4.629.661-9.92-.661-14.55-.661-2.645-7.936-1.323-16.534-.661-25.131-3.968,7.936-7.936,15.211-9.259,23.808-3.968-1.323-7.936-.661-11.9-.661Z" transform="translate(-130.721 -13.673)" fill="#fff"/><path d="M487.614,65.382c-13.227-.661-19.84-15.211-14.55-26.454,1.984-3.307,3.968-7.275,7.275-9.259a19.429,19.429,0,0,1,19.84.661c.661,1.323,1.984,1.984,3.307,3.307,5.291,5.291,5.291,13.888,2.645,20.5-3.307,7.275-10.582,12.566-18.518,11.243Zm0-9.259c1.984.661,3.307-.661,4.629-1.323a13.314,13.314,0,0,0,3.307-14.55c-.661-2.645-4.629-4.629-7.275-2.645-3.968,1.984-5.952,7.275-5.291,12.566.661,2.645,1.323,5.291,4.629,5.952Z" transform="translate(-159.587 -13.797)" fill="#fff"/><path d="M536.577,64.8c-1.323-5.291-.661-9.92-.661-15.211.661-7.275,2.645-13.888.661-21.163,3.307-.661,7.275-1.984,10.582.661,1.323.661.661,3.307,1.323,5.291,2.645-3.968,7.936-8.6,13.227-5.952,0,3.968.661,7.275-.661,11.243-4.629-1.984-10.581,0-12.566,3.968A38.282,38.282,0,0,0,546.5,64.8Z" transform="translate(-181.434 -13.879)" fill="#fff"/><path d="M589.76,58.485c-13.227-1.323-16.534-16.534-12.566-27.115,2.645-7.936,11.243-13.888,19.84-10.582,2.645,1.323,3.968,3.307,5.291,5.291,0-6.613.661-12.566-.661-19.179h9.92a54.38,54.38,0,0,1,1.323,17.856c-1.323,11.243-4.629,22.486-1.323,33.067A19.292,19.292,0,0,1,601,58.485a14.454,14.454,0,0,1-1.984-3.307c-2.645,1.984-5.952,3.968-9.259,3.307Zm1.984-9.259c1.984.661,5.291,0,5.952-1.984.661-4.629.661-9.259,2.645-13.888-2.645-2.645-6.613-5.291-9.92-2.645-3.307,3.307-4.629,8.6-3.968,13.227.661,2.645,1.984,4.629,5.291,5.291Z" transform="translate(-194.937 -6.9)" fill="#fff"/></g><g transform="translate(2184 456)"><path d="M664.506,72.675a9.085,9.085,0,0,1-.949-.051,7.393,7.393,0,0,1-5.22-2.465A8.486,8.486,0,0,1,656,64.35c0-2.761,2.055-5.114,2.938-6l.032-.032.035-.029a8.041,8.041,0,0,1,12.845,3.8l.016.054.009.056a10.282,10.282,0,0,1-2.007,8.048A6.807,6.807,0,0,1,664.506,72.675ZM660.32,59.8A7.07,7.07,0,0,0,658,64.35a6.582,6.582,0,0,0,1.8,4.441,5.381,5.381,0,0,0,3.817,1.833h.055l.055.006a7.116,7.116,0,0,0,.782.045,4.8,4.8,0,0,0,3.836-1.719,8.368,8.368,0,0,0,1.569-6.37A6.043,6.043,0,0,0,660.32,59.8Z" transform="translate(-657 -20.04)" fill="#fff"/><path d="M700.786,53.485a19.045,19.045,0,0,1-5.062-.615,9.472,9.472,0,0,1-4.242-2.323l-.032-.032-.029-.035a16.03,16.03,0,0,1-3.354-7.223,25.367,25.367,0,0,1-.178-8.085c.393-3.533,1.133-7.021,1.849-10.4,1.728-8.142,3.359-15.832.2-23.5L689.373-.1h13.354L703,.453c2.313,4.626,2.218,9.737,2.126,14.679-.018.972-.037,1.978-.037,2.964v.042l0,.041a51.815,51.815,0,0,1-2.335,10.549c-1.178,3.962-2.291,7.705-2.291,11.853,0,1.042.512,1.394,1.492,1.976a4.465,4.465,0,0,1,1.57,1.3c1.4,1.059,1.915,2.857,2.415,4.6a17.176,17.176,0,0,0,1.03,2.919l.516,1.031-1.094.365A15.521,15.521,0,0,1,700.786,53.485Zm-7.859-4.321c1.95,1.918,5.346,2.321,7.859,2.321a15.791,15.791,0,0,0,3.921-.307c-.273-.722-.484-1.453-.689-2.168-.463-1.61-.862-3-1.8-3.629l-.221-.147L701.876,45a2.751,2.751,0,0,0-.94-.719,4.066,4.066,0,0,1-2.472-3.7c0-4.439,1.207-8.5,2.374-12.423a50.463,50.463,0,0,0,2.256-10.1c0-.991.019-1.991.037-2.959.087-4.7.17-9.153-1.653-13.194h-9.166a28.413,28.413,0,0,1,1.357,11.012,83.11,83.11,0,0,1-1.974,12.28c-.706,3.329-1.437,6.771-1.819,10.208l0,.014C689.149,41.213,690.177,45.839,692.927,49.164Z" transform="translate(-667.719 -0.9)" fill="#fff"/><path d="M739.248,60.683a13.33,13.33,0,0,1-2.809-.3,17.489,17.489,0,0,1-13.187-7.291,21.614,21.614,0,0,1-3.519-17.753l.012-.045c2.335-7.782,7.019-12.683,13.922-14.566l.067-.016a22.146,22.146,0,0,1,4.333-.434,19.738,19.738,0,0,1,11.677,3.7,18.507,18.507,0,0,1,6.973,10.008l.013.047.009.048c1.615,8.882-.036,15.856-4.906,20.726l-.032.032-.035.029a34.087,34.087,0,0,1-5.6,3.957A14.46,14.46,0,0,1,739.248,60.683Zm-17.58-24.842A19.711,19.711,0,0,0,724.862,51.9a15.52,15.52,0,0,0,11.769,6.486l.082,0,.08.018a11.344,11.344,0,0,0,2.455.275c4.42,0,8.1-2.745,11.2-5.328,4.345-4.369,5.8-10.719,4.33-18.874a17.081,17.081,0,0,0-16.713-12.208,20.137,20.137,0,0,0-3.907.388C727.992,24.355,723.79,28.789,721.668,35.841Zm14.246,15.285h-.255L735.436,51a9.639,9.639,0,0,1-4.977-8.581c-.136-4.606,2.169-9.464,5.495-11.6a4.83,4.83,0,0,1,3.35-1.2,6.894,6.894,0,0,1,3.779,1.16l.055.036.049.043c2.616,2.289,3.615,5.585,2.888,9.531a23.828,23.828,0,0,1-4.055,9l-.048.067-.059.059C740.3,51.126,737.969,51.126,735.914,51.126Zm3.389-19.51a2.862,2.862,0,0,0-2.021.7l-.081.081-.1.06c-2.766,1.729-4.764,5.988-4.648,9.908a7.849,7.849,0,0,0,3.719,6.762c1.7,0,3.281-.048,4.266-.976a21.6,21.6,0,0,0,3.664-8.125c.6-3.234-.14-5.8-2.188-7.62A4.87,4.87,0,0,0,739.3,31.616Z" transform="translate(-678.377 -7.799)" fill="#fff"/><path d="M811.926,60.508c-1.074,0-2.117-.039-3.222-.081s-2.232-.084-3.391-.084h-.858l-.13-.848c-.856-5.567.182-10.675,1.187-15.615a74.082,74.082,0,0,0,1.446-9.033,4.447,4.447,0,0,0-.923-1.8,8.166,8.166,0,0,0-3.284-.689c-.639,0-2.748.1-3.081,1.434l-.018.073-.029.069a50.889,50.889,0,0,0-3.894,24.009l.083,1.077h-1.08c-.852,0-1.7-.043-2.53-.084-.8-.04-1.628-.081-2.43-.081a11.93,11.93,0,0,0-4.589.755l-1.2.481-.161-1.286c-.805-6.441-.158-12.715.467-18.783a121.23,121.23,0,0,0,.848-12.425,8.3,8.3,0,0,0-.467-2.295c-.337-1.11-.685-2.258.1-3.042l.039-.039.043-.035a9.235,9.235,0,0,1,5.915-2.038,15.1,15.1,0,0,1,5.543,1.181c.4.078.848.369,1.126,1.2a11.585,11.585,0,0,1,.326,1.389c.037.191.076.389.117.586a20.781,20.781,0,0,1,4.111-2.339c.5-.235,1.014-.479,1.556-.75a8.182,8.182,0,0,1,3.694-.827,13.3,13.3,0,0,1,5.772,1.475,11.039,11.039,0,0,1,5.523,5.516,18.464,18.464,0,0,1,1.67,7.957v.042l0,.041c-.141,1.691-.313,3.366-.48,4.987-.623,6.064-1.212,11.791-.192,17.913l.147.881-.858.245A24.555,24.555,0,0,1,811.926,60.508Zm-5.74-2.158c.888.014,1.751.047,2.593.078,1.085.041,2.11.08,3.147.08a23.334,23.334,0,0,0,5.487-.566c-.867-6.04-.292-11.635.315-17.543.164-1.6.334-3.249.473-4.906-.011-5.66-2.255-10-6.007-11.605l-.053-.025a11.322,11.322,0,0,0-4.9-1.277,6.2,6.2,0,0,0-2.8.615c-.562.281-1.088.529-1.6.77a15.237,15.237,0,0,0-4.758,3.011l-.981.981-.62-1.241a9.891,9.891,0,0,1-.687-2.424c-.069-.352-.166-.85-.252-1.118a13.316,13.316,0,0,0-4.78-1.031,7.186,7.186,0,0,0-4.473,1.45,8.32,8.32,0,0,0,.29,1.123,9.978,9.978,0,0,1,.554,2.875,122.751,122.751,0,0,1-.858,12.63c-.6,5.822-1.169,11.342-.607,17.111a15.224,15.224,0,0,1,4.1-.485c.852,0,1.7.043,2.53.084.448.022.9.045,1.359.061a52.436,52.436,0,0,1,.58-11.624,54.012,54.012,0,0,1,3.509-12.147c.495-1.8,2.356-2.871,5-2.871a10.008,10.008,0,0,1,4.333.974l.145.073.115.115a5.911,5.911,0,0,1,1.616,3.353v.038l0,.038a75.242,75.242,0,0,1-1.484,9.329C806.511,49,805.6,53.467,806.186,58.35Z" transform="translate(-700.158 -7.758)" fill="#fff"/><path d="M863.024,61.087h-.05a18.524,18.524,0,0,1-9.014-2.82,19.945,19.945,0,0,1-6.342-6.446,21.19,21.19,0,0,1-3.05-9.273,20.413,20.413,0,0,1,1.67-9.981l.006-.013c3.409-7.386,10.371-12.158,17.738-12.158a17.779,17.779,0,0,1,5.992,1.054,14.424,14.424,0,0,1,8.388,7.774,19.92,19.92,0,0,1,1.706,8.234,23.681,23.681,0,0,1-1.561,8.44l-.2.524-.553.1a27.791,27.791,0,0,1-4.956.437c-4.641,0-9.608-1.06-15.548-3.327a6.69,6.69,0,0,0,3,5.681,13.007,13.007,0,0,0,11.59-.04l.79-.395.49.735c.3.444.582.9.885,1.392a13.914,13.914,0,0,0,3.467,4.283l1.248.832-1.248.832A27,27,0,0,1,863.024,61.087Zm-14.961-27.7a18.707,18.707,0,0,0,1.259,17.388,17.019,17.019,0,0,0,13.727,8.315A25.492,25.492,0,0,0,875.2,56a21.056,21.056,0,0,1-2.9-3.938q-.2-.318-.388-.621a15,15,0,0,1-12.644-.378l-.081-.04-.072-.054c-3.114-2.335-4.389-5.424-3.687-8.932l.236-1.179,1.116.446c6.237,2.495,11.325,3.656,16.014,3.656a26.027,26.027,0,0,0,4.04-.31,20.1,20.1,0,0,0-.292-14.591,12.466,12.466,0,0,0-7.243-6.725,15.785,15.785,0,0,0-5.32-.937C857.394,22.4,851.146,26.708,848.062,33.384Zm20.27,5.322h0a19.755,19.755,0,0,1-6.469-1.506,25.98,25.98,0,0,0-4.295-1.258l-1.623-.27.987-1.316c.161-.215.32-.431.488-.66,1.609-2.189,3.432-4.671,6.519-4.671a6.485,6.485,0,0,1,2.045.352l.067.022.064.032a14.726,14.726,0,0,1,4.228,2.833l.07.07.055.082a5.6,5.6,0,0,1,.481,5.278,1.514,1.514,0,0,1-1.2.9A8.988,8.988,0,0,1,868.332,38.707Zm-8.881-4.393c1.043.281,2.073.646,3.08,1a18.034,18.034,0,0,0,5.8,1.391h0a7.091,7.091,0,0,0,.9-.056,3.067,3.067,0,0,0,.167-1.094,3.779,3.779,0,0,0-.544-1.95,12.878,12.878,0,0,0-3.568-2.352,4.446,4.446,0,0,0-1.348-.229C862.065,31.025,860.76,32.555,859.451,34.313Z" transform="translate(-720.834 -7.841)" fill="#fff"/><path d="M914.654,53.57a10.2,10.2,0,0,1-6.167-2.193,14.48,14.48,0,0,1-4.124-5.058l-.019-.037-.015-.039c-2.917-7.293-1.06-14.829.736-22.116a83.254,83.254,0,0,0,1.846-8.805c.635-5.087-.623-9.487-1.954-14.146L904.593-.1h13.984l.207.725a51.615,51.615,0,0,1,1.5,9.438c.143,1.506.292,3.063.509,4.583l.01.07v.071c0,4.431-1.194,8.867-2.349,13.156-1.121,4.164-2.28,8.47-2.28,12.636a2.14,2.14,0,0,0,2.307,2.307h.781l.189.757a39.979,39.979,0,0,0,3.23,7.73l.516,1.031-1.093.366a18.988,18.988,0,0,1-6.2.713A9.407,9.407,0,0,1,914.654,53.57Zm-8.484-8.108c1.426,2.827,4.493,6.108,8.484,6.108A7.4,7.4,0,0,0,915.7,51.5l.07-.01h.071a21.832,21.832,0,0,0,4.513-.308,39.483,39.483,0,0,1-2.649-6.349,4.084,4.084,0,0,1-3.525-4.248c0-4.431,1.194-8.867,2.349-13.156,1.115-4.141,2.267-8.422,2.28-12.566-.218-1.543-.366-3.1-.51-4.6a54.337,54.337,0,0,0-1.24-8.353h-9.815c1.2,4.255,2.276,8.681,1.652,13.674v.008a85.983,85.983,0,0,1-1.887,9.023C905.29,31.572,903.515,38.776,906.17,45.461Z" transform="translate(-740.582 -0.9)" fill="#fff"/><path d="M937.042,73.372a2.559,2.559,0,0,1-.869-.123,1.269,1.269,0,0,1-.811-.808c-1.252-2.217-.775-4.417-.354-6.362a9.3,9.3,0,0,0,.318-3.726L935,60.745l1.577.451a7.542,7.542,0,0,0,2.068.3,4.99,4.99,0,0,0,5.255-5.266c-.647-11.616-2.533-24.618-11.585-33.023L931.02,22l1.706-.487a24.553,24.553,0,0,1,6.888-.865c1.074,0,2.117.039,3.222.081s2.232.084,3.392.084h.721l.228.684a26.292,26.292,0,0,0,3.19,5.714l.083.124.043.143c.237.79.489,1.6.732,2.378,1.406,4.506,2.848,9.128,2.637,14.039a40.705,40.705,0,0,0,5.915-20.759v-1.22l1.2.239a8.666,8.666,0,0,0,1.719.166,19.269,19.269,0,0,0,3.375-.4,22.162,22.162,0,0,1,3.969-.449h1v1a44.835,44.835,0,0,1-1.351,10.736,74.773,74.773,0,0,1-3.35,10.137l-.015.039-.019.037A204.41,204.41,0,0,1,951.017,69.34l-.051.074-.064.064a11.939,11.939,0,0,1-8.643,3.768,13.08,13.08,0,0,1-2.06-.168c-.376.008-.9.074-1.417.138A15.3,15.3,0,0,1,937.042,73.372Zm.374-9.959a15.512,15.512,0,0,1-.453,3.091c-.387,1.788-.724,3.341.093,4.869a14.5,14.5,0,0,0,1.479-.139,15.3,15.3,0,0,1,1.741-.155h.083l.082.014a11.11,11.11,0,0,0,1.82.155,9.985,9.985,0,0,0,7.166-3.12,202.435,202.435,0,0,0,15.068-25.558c2.147-5.371,4.334-11.8,4.528-19.05-.878.07-1.724.22-2.606.376a21.086,21.086,0,0,1-3.723.428c-.317,0-.627-.013-.932-.038a41.047,41.047,0,0,1-2.355,12.5,47.408,47.408,0,0,1-6.417,12.077l-1.773-.851c1.668-6.118-.065-11.672-1.9-17.553-.23-.739-.468-1.5-.7-2.255a30.894,30.894,0,0,1-3.091-5.387c-.949-.012-1.871-.047-2.768-.081-1.085-.041-2.11-.08-3.146-.08a24.707,24.707,0,0,0-4.628.384,31.631,31.631,0,0,1,4.557,6.172,40.933,40.933,0,0,1,3.593,8.612A81.247,81.247,0,0,1,945.9,56.15l0,.055a7.008,7.008,0,0,1-7.255,7.293A9.048,9.048,0,0,1,937.416,63.412Z" transform="translate(-750.469 -7.927)" fill="#fff"/><path d="M1008.038,60.619a16.768,16.768,0,0,1-2.9-.252,19.244,19.244,0,0,1-7.413-1.569,17.324,17.324,0,0,1-6.492-4.743l-.419-.5.292-.585c.255-.51.508-1.04.775-1.6,1.09-2.287,2.325-4.879,4.042-6.6l.79-.79.7.872a14.778,14.778,0,0,0,9.209,5.574,1.914,1.914,0,0,0,1.566-1.5c-.947-2.605-3.282-4.111-5.751-5.7-2.609-1.682-5.307-3.421-6.719-6.6l-.005-.012a12.2,12.2,0,0,1-.541-8.017,10.606,10.606,0,0,1,4.932-6.472l.04-.023.042-.019a21.158,21.158,0,0,1,8.7-1.861,19,19,0,0,1,14.289,6.075l.45.506-.3.606c-.255.51-.508,1.04-.775,1.6-1.09,2.287-2.325,4.879-4.042,6.6l-.981.981-.62-1.241c-.979-1.957-2.945-3.329-5.844-4.077h-2.263a1.284,1.284,0,0,0-.606.717,2.206,2.206,0,0,0,.485,1.642,28.608,28.608,0,0,0,5.465,4.357,28.048,28.048,0,0,1,5.641,4.542,9.1,9.1,0,0,1,2.321,7v.008a10.935,10.935,0,0,1-1.527,4.691,11.986,11.986,0,0,1-3.235,3.491A15.828,15.828,0,0,1,1008.038,60.619Zm-14.846-7.361a16.635,16.635,0,0,0,12.035,5.109h.09l.089.016a14.752,14.752,0,0,0,2.632.236c5.576,0,11.51-3.18,12.065-9.258.388-4.674-3.076-7.012-7.087-9.718a29.718,29.718,0,0,1-5.9-4.748l-.043-.049-.036-.054a4.065,4.065,0,0,1-.789-3.319,3.319,3.319,0,0,1,1.835-2.1l.211-.106h3l.119.03a11.119,11.119,0,0,1,6.506,3.915,30.17,30.17,0,0,0,2.809-5.064c.165-.347.325-.682.484-1.011a17.136,17.136,0,0,0-12.341-4.916,19.149,19.149,0,0,0-7.826,1.662c-4.324,2.5-5.182,8.024-3.508,11.936,1.171,2.628,3.5,4.132,5.972,5.724,2.7,1.743,5.5,3.545,6.626,6.926l.051.154v.162a3.84,3.84,0,0,1-3.645,3.645h-.083l-.082-.014a16.541,16.541,0,0,1-9.77-5.411,28.789,28.789,0,0,0-2.929,5.221C993.517,52.582,993.354,52.924,993.192,53.258Z" transform="translate(-770.449 -7.782)" fill="#fff"/><path d="M1083.8,61.1a57.956,57.956,0,0,1-6.088-.436,53.827,53.827,0,0,0-5.615-.41h-.721l-.228-.684a35.139,35.139,0,0,1-1.63-10.8c-.037-3.152.207-6.391.48-9.56-3.064,6.147-5.794,12.119-6.833,18.871l-.18,1.171-1.124-.375a17.3,17.3,0,0,0-5.636-.775c-.971,0-1.969.042-2.934.082-.986.041-2,.084-3.018.084h-.82l-.161-.8c-.759-3.794-1.237-7.741-1.7-11.558-.752-6.208-1.53-12.626-3.536-18.673-.155-.3-.358-.618-.572-.954A7.381,7.381,0,0,1,1042,22.223V21.5l.684-.228c4.122-1.374,8.776-1.374,12.882-1.374h.618l.276.553c3.074,6.148,2.722,13.27,2.344,20.173,3.181-6.362,6.444-12.931,8.37-19.351l.262-.872.892.178c.958.192,1.851.434,2.715.668a17.366,17.366,0,0,0,4.516.815,8.24,8.24,0,0,0,1.635-.161l.9-.181.253.887a37.185,37.185,0,0,1,1.361,14.895V47.5q.511-1.363,1.018-2.7c2.694-7.1,5.239-13.813,6.249-21.389l.116-.868h.875a32.413,32.413,0,0,0,8.355-1.293l1.243-.311v1.281c0,8.991-3.018,17.442-5.937,25.615-1.438,4.026-2.925,8.19-4.016,12.337l-.169.642-.657.094A21,21,0,0,1,1083.8,61.1Zm-10.969-2.836c1.666.045,3.4.231,5.094.412a56.481,56.481,0,0,0,5.875.425,20.394,20.394,0,0,0,2.055-.1c1.093-4.008,2.514-7.988,3.891-11.844,2.72-7.615,5.527-15.476,5.8-23.659a32.3,32.3,0,0,1-6.705,1.025c-1.11,7.451-3.6,14.031-6.241,20.981-.76,2-1.545,4.075-2.285,6.147l-1.942-.336a5.814,5.814,0,0,0-.279-1.006,5.583,5.583,0,0,1-.382-1.639V37.363l.01-.07a34.517,34.517,0,0,0-1.061-13.286,10.367,10.367,0,0,1-1.1.058,18.856,18.856,0,0,1-5.039-.885c-.555-.15-1.123-.3-1.7-.443-2.026,6.384-5.239,12.817-8.355,19.05L1058.5,47.67l-1.949-.316c0-2.147.124-4.413.244-6.6.356-6.5.725-13.217-1.858-18.85a40.66,40.66,0,0,0-10.861,1.037,7.032,7.032,0,0,0,1.1,2.273,13.5,13.5,0,0,1,.705,1.195l.032.064.022.067c2.086,6.259,2.88,12.805,3.647,19.136.425,3.505.863,7.121,1.518,10.594.706-.014,1.417-.044,2.112-.073.986-.041,2-.084,3.018-.084a20.781,20.781,0,0,1,5.152.552c1.361-7.488,4.63-13.975,8.08-20.823.355-.705.723-1.434,1.084-2.158l1.891.524c-.1,1.249-.208,2.516-.315,3.74C1071.489,45.1,1070.893,51.875,1072.833,58.268Z" transform="translate(-787.721 -7.673)" fill="#fff"/><path d="M1147.06,60.585a15.919,15.919,0,0,1-2.553-.207,17.556,17.556,0,0,1-8.521-2.652,18.221,18.221,0,0,1-5.87-6.05,20.575,20.575,0,0,1-.956-19.173l.021-.046.026-.043c.264-.44.524-.885.8-1.356,1.752-3,3.738-6.4,6.819-8.246l.029-.017a20.481,20.481,0,0,1,9.931-2.529,19.644,19.644,0,0,1,10.949,3.232l.221.147.119.238a5.9,5.9,0,0,0,1.671,1.766c.443.365.945.778,1.448,1.281a16.51,16.51,0,0,1,4.588,10.371,24.769,24.769,0,0,1-1.721,11.209l-.018.042a21.829,21.829,0,0,1-6.856,8.559A17.053,17.053,0,0,1,1147.06,60.585ZM1130.948,33.4a18.605,18.605,0,0,0,.883,17.248,15.483,15.483,0,0,0,12.833,7.737l.058,0,.057.009a13.916,13.916,0,0,0,2.281.19c6.205,0,12.151-4.253,15.152-10.839,2.41-6.042,2.591-14.378-2.433-19.4-.434-.434-.877-.8-1.3-1.15a8.116,8.116,0,0,1-2.055-2.166,17.682,17.682,0,0,0-9.635-2.762,18.479,18.479,0,0,0-8.945,2.269c-2.634,1.587-4.4,4.609-6.107,7.532C1131.476,32.507,1131.21,32.962,1130.948,33.4Zm14.735,17.9h0a4.361,4.361,0,0,1-1.325-.212,5.7,5.7,0,0,1-3.9-2.676,14.035,14.035,0,0,1-1.441-4l-.015-.059-.008-.06a16.264,16.264,0,0,1,.976-8.024,10.409,10.409,0,0,1,4.782-5.52,5.065,5.065,0,0,1,2.989-.951,6.291,6.291,0,0,1,3.623,1.2,5.417,5.417,0,0,1,2.144,2.949,14.2,14.2,0,0,1,.6,8.3,15.24,15.24,0,0,1-4.152,7.259l-.115.115-.145.073c-.25.125-.515.286-.8.457A6.13,6.13,0,0,1,1145.683,51.3Zm-4.714-7.316c.718,2.865,1.3,4.647,3.841,5.155l.061.012.059.02a2.352,2.352,0,0,0,.753.129,4.374,4.374,0,0,0,2.173-.86c.255-.155.518-.315.788-.459a12.32,12.32,0,0,0,2.97-13.382l-.02-.053-.014-.055a3.456,3.456,0,0,0-1.384-1.866,4.337,4.337,0,0,0-2.458-.828,3.035,3.035,0,0,0-1.863.606l-.072.054-.081.04C1142.307,34.208,1140.357,38.927,1140.97,43.988Z" transform="translate(-816.587 -7.797)" fill="#fff"/><path d="M1204.7,59.8h-11.9l-.189-.757a39.856,39.856,0,0,1-.775-11.561c.041-1.261.084-2.565.084-3.893v-.045l0-.045c.173-1.905.437-3.774.692-5.582.729-5.159,1.417-10.032,0-15.228l-.282-1.034,1.051-.21c.385-.077.776-.162,1.189-.253a22.808,22.808,0,0,1,4.809-.688,8.317,8.317,0,0,1,5.33,1.744,2.543,2.543,0,0,1,1.165,1.664,10.328,10.328,0,0,1,.237,1.919l0,.054c2.373-2.783,5.738-5.237,9.367-5.237a8.153,8.153,0,0,1,3.673.884l.553.276v.618c0,.991.043,1.956.084,2.889a22.367,22.367,0,0,1-.8,8.67l-.344,1.031-1-.428a8.857,8.857,0,0,0-3.51-.7c-3.322,0-6.5,1.708-7.749,4.158a37.411,37.411,0,0,0-1.913,20.573Zm-10.325-2h7.945a40.685,40.685,0,0,1-.311-9.922,38.043,38.043,0,0,1,2.547-10.612l.015-.039.019-.037c1.585-3.17,5.425-5.3,9.555-5.3a11.059,11.059,0,0,1,3.247.474,22.63,22.63,0,0,0,.405-6.961c-.033-.753-.068-1.526-.081-2.327a6.073,6.073,0,0,0-2.231-.429c-3.675,0-7.236,3.386-9.169,6.285l-1.134,1.7-.647-1.94a10.8,10.8,0,0,1-.417-2.737c-.049-.773-.116-1.831-.4-1.976l-.095-.047-.083-.066a6.3,6.3,0,0,0-4.154-1.363,20.969,20.969,0,0,0-4.382.642l-.2.043c1.181,5.192.506,9.968-.206,15.007-.25,1.769-.508,3.6-.677,5.438,0,1.344-.044,2.65-.085,3.913A40.563,40.563,0,0,0,1194.37,57.8Z" transform="translate(-838.434 -7.879)" fill="#fff"/><path d="M1262.358,53.919a23.262,23.262,0,0,1-4.552-.454l-.3-.059-.214-.214a10.518,10.518,0,0,1-1.639-2.514c-2.119,1.486-4.75,2.937-7.569,2.937a7.8,7.8,0,0,1-1.474-.139,15.328,15.328,0,0,1-11.866-7.341,22.017,22.017,0,0,1-3.08-10.314,26.542,26.542,0,0,1,1.584-10.783,18.711,18.711,0,0,1,6.037-8.606,16.859,16.859,0,0,1,4.576-2.611,14.87,14.87,0,0,1,5.229-.962,14.719,14.719,0,0,1,5.3,1l.045.017.043.022a11.7,11.7,0,0,1,3.882,3.133q.021-.957.047-1.892a61.045,61.045,0,0,0-.727-14.039l-.239-1.2h11.942l.174.783a55.318,55.318,0,0,1,1.34,18.184v.006c-.311,2.647-.737,5.323-1.148,7.912-1.377,8.668-2.678,16.855-.214,24.74l.276.883-.859.344A17.721,17.721,0,0,1,1262.358,53.919Zm-3.836-2.353a21.225,21.225,0,0,0,3.836.353,16.712,16.712,0,0,0,5-.719,37.637,37.637,0,0,1-1.145-11.84,117.269,117.269,0,0,1,1.564-12.889c.408-2.568.83-5.223,1.136-7.829A52.539,52.539,0,0,0,1267.778,1.9h-7.913a67.057,67.057,0,0,1,.545,13.287c-.041,1.588-.084,3.23-.084,4.892v3.3l-1.832-2.748c-1.277-1.916-2.484-3.725-4.863-4.929a12.719,12.719,0,0,0-4.537-.848c-5.992,0-11.859,4.555-13.95,10.83l-.012.035c-2.412,6.433-1.884,14.212,1.315,19.357a13.4,13.4,0,0,0,10.414,6.412l.049,0,.048.01a5.781,5.781,0,0,0,1.131.11c2.7,0,5.479-1.847,7.331-3.236l.958-.719.536,1.072A18.485,18.485,0,0,0,1258.522,51.567Zm-8.1-7.092a6.437,6.437,0,0,1-1.929-.279,7.335,7.335,0,0,1-4.122-2.2,8.521,8.521,0,0,1-1.884-3.82l-.013-.05-.007-.051a18.223,18.223,0,0,1,.525-7.526,15.094,15.094,0,0,1,3.726-6.55l.039-.039.043-.035a5.728,5.728,0,0,1,3.651-1.315c2.948,0,5.761,2.194,7.6,4.034l.479.479-.267.622c-1.429,3.334-1.782,6.634-2.157,10.129-.123,1.147-.25,2.332-.418,3.507l-.013.089-.028.086C1254.973,43.573,1252.536,44.474,1250.418,44.474Zm-5.982-6.731c.686,2.695,1.994,4,4.5,4.5l.061.012.059.02a4.373,4.373,0,0,0,1.358.2c1.331,0,2.915-.516,3.3-1.476.156-1.108.277-2.239.395-3.335A37.7,37.7,0,0,1,1256.16,27.6c-2.06-1.932-4.072-2.988-5.712-2.988a3.713,3.713,0,0,0-2.359.843C1245.227,28.348,1243.8,33.158,1244.436,37.743Z" transform="translate(-851.937 -0.9)" fill="#fff"/></g><g transform="translate(2618 457)"><path d="M6.613,77.625C3.307,77.625,0,74.318,0,70.35a8.164,8.164,0,0,1,2.645-5.291,7.042,7.042,0,0,1,11.243,3.307c.661,3.968-1.323,9.92-7.275,9.259Z" transform="translate(0 -26.04)" fill="#fff"/><path d="M43.786,58.485c-3.307,0-6.613-.661-8.6-2.645-3.307-3.968-3.968-9.259-3.307-14.55C33.2,29.386,38.5,18.143,33.866,6.9H45.109c2.645,5.291,1.984,11.243,1.984,17.195-.661,7.936-4.629,14.55-4.629,22.486,0,2.645,2.645,2.645,3.307,3.968,1.984,1.323,1.984,4.629,3.307,7.275a14.562,14.562,0,0,1-5.291.661Z" transform="translate(-10.719 -6.9)" fill="#fff"/><path d="M79.576,65.384c-11.9-.661-18.518-13.227-15.872-23.808,1.984-6.613,5.952-11.9,13.227-13.888,9.92-1.984,19.179,3.307,21.824,12.566,1.323,7.275.661,14.55-4.629,19.84-3.968,3.307-8.6,6.613-14.55,5.291Zm-.661-9.259c1.984,0,3.968,0,5.291-1.323,3.307-4.629,6.613-12.566,1.323-17.195-1.984-1.323-4.629-1.323-5.952,0-5.291,3.307-7.936,14.55-.661,18.518Z" transform="translate(-21.377 -13.799)" fill="#fff"/><path d="M127.81,64.681c-1.323-10.582,1.323-20.5,1.323-31.083,0-1.984-1.323-3.968-.661-4.629,3.307-2.645,7.275-1.984,10.582-.661.661,0,.661,2.645,1.323,3.968,1.984-1.984,3.968-2.645,6.613-3.968s5.952-.661,8.6.661c4.629,1.984,6.613,7.275,6.613,12.566-.661,7.936-1.984,15.211-.661,23.147-4.629,1.323-8.6.661-13.227.661-1.323-8.6,1.984-15.872,2.645-24.47a5.014,5.014,0,0,0-1.323-2.645C146.989,36.9,142.36,36.9,141.7,39.55a51.674,51.674,0,0,0-3.968,24.47c-3.307,0-6.613-.661-9.92.661Z" transform="translate(-43.158 -13.758)" fill="#fff"/><path d="M206.024,66.087c-13.227-.661-21.163-15.211-15.872-27.115,3.968-8.6,13.227-13.888,22.486-10.582s11.243,14.55,7.936,23.147c-7.275,1.323-14.55-.661-21.163-3.307-.661,3.307.661,5.952,3.307,7.936a14.008,14.008,0,0,0,12.566,0c1.323,1.984,2.645,4.629,4.629,5.952a26.028,26.028,0,0,1-13.888,3.968Zm-5.291-25.131c3.968.661,7.936,3.307,11.9,2.645.661,0,1.323-2.645,0-4.629a13.835,13.835,0,0,0-3.968-2.645c-3.968-1.323-5.952,1.984-7.936,4.629Z" transform="translate(-63.834 -13.841)" fill="#fff"/><path d="M258.839,58.485c-4.629.661-8.6-2.645-10.582-6.613-3.968-9.92,1.323-20.5,2.645-30.422.661-5.291-.661-9.92-1.984-14.55h11.9c1.323,4.629,1.323,9.259,1.984,13.888,0,8.6-4.629,17.195-4.629,25.792a3.124,3.124,0,0,0,3.307,3.307,40.455,40.455,0,0,0,3.307,7.936,18.31,18.31,0,0,1-5.952.661Z" transform="translate(-83.582 -6.9)" fill="#fff"/><path d="M283.275,78.078c-1.323,0-3.968.661-3.968,0-1.984-3.307.661-6.613,0-9.92,4.629,1.323,8.6-1.323,8.6-5.952-.661-11.9-2.645-25.131-11.9-33.729,4.629-1.323,8.6-.661,13.227-.661a26.805,26.805,0,0,0,3.307,5.952c1.984,6.613,4.629,13.227,2.645,20.5a42.694,42.694,0,0,0,8.6-25.131c3.307.661,5.952-.661,9.259-.661,0,7.275-1.984,13.888-4.629,20.5a202.868,202.868,0,0,1-15.211,25.792,10.916,10.916,0,0,1-9.92,3.307Z" transform="translate(-93.469 -13.927)" fill="#fff"/><path d="M348.227,65.367A17.625,17.625,0,0,1,335,59.415c1.323-2.645,2.645-5.952,4.629-7.936a15.678,15.678,0,0,0,9.92,5.952,2.845,2.845,0,0,0,2.645-2.645c-1.984-5.952-9.92-6.613-12.566-12.566-1.984-4.629-.661-10.582,3.968-13.227,7.275-3.307,16.534-1.984,21.824,3.968-1.323,2.645-2.645,5.952-4.629,7.936-1.323-2.645-3.968-3.968-6.613-4.629h-2.645c-1.323.661-1.984,1.984-.661,3.968,4.629,5.291,13.888,7.275,13.227,15.211-.661,7.275-8.6,11.243-15.872,9.92Z" transform="translate(-113.449 -13.782)" fill="#fff"/><path d="M393.275,63.274c-1.984-9.92-1.984-20.5-5.291-30.422-.661-1.323-1.984-2.645-1.984-4.629,3.968-1.323,8.6-1.323,12.566-1.323,3.968,7.936,1.984,17.856,1.984,26.454l1.984-5.952c3.307-6.613,6.613-13.227,8.6-19.84,3.307.661,5.952,1.984,9.259,1.323a36.374,36.374,0,0,1,1.323,14.55V54.677c0,.661.661,1.984.661,2.645,3.307-9.259,7.275-17.856,8.6-27.777a33.507,33.507,0,0,0,8.6-1.323c0,13.227-6.613,25.131-9.92,37.7-4.629.661-9.92-.661-14.55-.661-2.645-7.936-1.323-16.534-.661-25.131-3.968,7.936-7.936,15.211-9.259,23.808-3.968-1.323-7.936-.661-11.9-.661Z" transform="translate(-130.721 -13.673)" fill="#fff"/><path d="M487.614,65.382c-13.227-.661-19.84-15.211-14.55-26.454,1.984-3.307,3.968-7.275,7.275-9.259a19.429,19.429,0,0,1,19.84.661c.661,1.323,1.984,1.984,3.307,3.307,5.291,5.291,5.291,13.888,2.645,20.5-3.307,7.275-10.582,12.566-18.518,11.243Zm0-9.259c1.984.661,3.307-.661,4.629-1.323a13.314,13.314,0,0,0,3.307-14.55c-.661-2.645-4.629-4.629-7.275-2.645-3.968,1.984-5.952,7.275-5.291,12.566.661,2.645,1.323,5.291,4.629,5.952Z" transform="translate(-159.587 -13.797)" fill="#fff"/><path d="M536.577,64.8c-1.323-5.291-.661-9.92-.661-15.211.661-7.275,2.645-13.888.661-21.163,3.307-.661,7.275-1.984,10.582.661,1.323.661.661,3.307,1.323,5.291,2.645-3.968,7.936-8.6,13.227-5.952,0,3.968.661,7.275-.661,11.243-4.629-1.984-10.581,0-12.566,3.968A38.282,38.282,0,0,0,546.5,64.8Z" transform="translate(-181.434 -13.879)" fill="#fff"/><path d="M589.76,58.485c-13.227-1.323-16.534-16.534-12.566-27.115,2.645-7.936,11.243-13.888,19.84-10.582,2.645,1.323,3.968,3.307,5.291,5.291,0-6.613.661-12.566-.661-19.179h9.92a54.38,54.38,0,0,1,1.323,17.856c-1.323,11.243-4.629,22.486-1.323,33.067A19.292,19.292,0,0,1,601,58.485a14.454,14.454,0,0,1-1.984-3.307c-2.645,1.984-5.952,3.968-9.259,3.307Zm1.984-9.259c1.984.661,5.291,0,5.952-1.984.661-4.629.661-9.259,2.645-13.888-2.645-2.645-6.613-5.291-9.92-2.645-3.307,3.307-4.629,8.6-3.968,13.227.661,2.645,1.984,4.629,5.291,5.291Z" transform="translate(-194.937 -6.9)" fill="#fff"/></g><g transform="translate(3052 456)"><path d="M664.506,72.675a9.085,9.085,0,0,1-.949-.051,7.393,7.393,0,0,1-5.22-2.465A8.486,8.486,0,0,1,656,64.35c0-2.761,2.055-5.114,2.938-6l.032-.032.035-.029a8.041,8.041,0,0,1,12.845,3.8l.016.054.009.056a10.282,10.282,0,0,1-2.007,8.048A6.807,6.807,0,0,1,664.506,72.675ZM660.32,59.8A7.07,7.07,0,0,0,658,64.35a6.582,6.582,0,0,0,1.8,4.441,5.381,5.381,0,0,0,3.817,1.833h.055l.055.006a7.116,7.116,0,0,0,.782.045,4.8,4.8,0,0,0,3.836-1.719,8.368,8.368,0,0,0,1.569-6.37A6.043,6.043,0,0,0,660.32,59.8Z" transform="translate(-657 -20.04)" fill="#fff"/><path d="M700.786,53.485a19.045,19.045,0,0,1-5.062-.615,9.472,9.472,0,0,1-4.242-2.323l-.032-.032-.029-.035a16.03,16.03,0,0,1-3.354-7.223,25.367,25.367,0,0,1-.178-8.085c.393-3.533,1.133-7.021,1.849-10.4,1.728-8.142,3.359-15.832.2-23.5L689.373-.1h13.354L703,.453c2.313,4.626,2.218,9.737,2.126,14.679-.018.972-.037,1.978-.037,2.964v.042l0,.041a51.815,51.815,0,0,1-2.335,10.549c-1.178,3.962-2.291,7.705-2.291,11.853,0,1.042.512,1.394,1.492,1.976a4.465,4.465,0,0,1,1.57,1.3c1.4,1.059,1.915,2.857,2.415,4.6a17.176,17.176,0,0,0,1.03,2.919l.516,1.031-1.094.365A15.521,15.521,0,0,1,700.786,53.485Zm-7.859-4.321c1.95,1.918,5.346,2.321,7.859,2.321a15.791,15.791,0,0,0,3.921-.307c-.273-.722-.484-1.453-.689-2.168-.463-1.61-.862-3-1.8-3.629l-.221-.147L701.876,45a2.751,2.751,0,0,0-.94-.719,4.066,4.066,0,0,1-2.472-3.7c0-4.439,1.207-8.5,2.374-12.423a50.463,50.463,0,0,0,2.256-10.1c0-.991.019-1.991.037-2.959.087-4.7.17-9.153-1.653-13.194h-9.166a28.413,28.413,0,0,1,1.357,11.012,83.11,83.11,0,0,1-1.974,12.28c-.706,3.329-1.437,6.771-1.819,10.208l0,.014C689.149,41.213,690.177,45.839,692.927,49.164Z" transform="translate(-667.719 -0.9)" fill="#fff"/><path d="M739.248,60.683a13.33,13.33,0,0,1-2.809-.3,17.489,17.489,0,0,1-13.187-7.291,21.614,21.614,0,0,1-3.519-17.753l.012-.045c2.335-7.782,7.019-12.683,13.922-14.566l.067-.016a22.146,22.146,0,0,1,4.333-.434,19.738,19.738,0,0,1,11.677,3.7,18.507,18.507,0,0,1,6.973,10.008l.013.047.009.048c1.615,8.882-.036,15.856-4.906,20.726l-.032.032-.035.029a34.087,34.087,0,0,1-5.6,3.957A14.46,14.46,0,0,1,739.248,60.683Zm-17.58-24.842A19.711,19.711,0,0,0,724.862,51.9a15.52,15.52,0,0,0,11.769,6.486l.082,0,.08.018a11.344,11.344,0,0,0,2.455.275c4.42,0,8.1-2.745,11.2-5.328,4.345-4.369,5.8-10.719,4.33-18.874a17.081,17.081,0,0,0-16.713-12.208,20.137,20.137,0,0,0-3.907.388C727.992,24.355,723.79,28.789,721.668,35.841Zm14.246,15.285h-.255L735.436,51a9.639,9.639,0,0,1-4.977-8.581c-.136-4.606,2.169-9.464,5.495-11.6a4.83,4.83,0,0,1,3.35-1.2,6.894,6.894,0,0,1,3.779,1.16l.055.036.049.043c2.616,2.289,3.615,5.585,2.888,9.531a23.828,23.828,0,0,1-4.055,9l-.048.067-.059.059C740.3,51.126,737.969,51.126,735.914,51.126Zm3.389-19.51a2.862,2.862,0,0,0-2.021.7l-.081.081-.1.06c-2.766,1.729-4.764,5.988-4.648,9.908a7.849,7.849,0,0,0,3.719,6.762c1.7,0,3.281-.048,4.266-.976a21.6,21.6,0,0,0,3.664-8.125c.6-3.234-.14-5.8-2.188-7.62A4.87,4.87,0,0,0,739.3,31.616Z" transform="translate(-678.377 -7.799)" fill="#fff"/><path d="M811.926,60.508c-1.074,0-2.117-.039-3.222-.081s-2.232-.084-3.391-.084h-.858l-.13-.848c-.856-5.567.182-10.675,1.187-15.615a74.082,74.082,0,0,0,1.446-9.033,4.447,4.447,0,0,0-.923-1.8,8.166,8.166,0,0,0-3.284-.689c-.639,0-2.748.1-3.081,1.434l-.018.073-.029.069a50.889,50.889,0,0,0-3.894,24.009l.083,1.077h-1.08c-.852,0-1.7-.043-2.53-.084-.8-.04-1.628-.081-2.43-.081a11.93,11.93,0,0,0-4.589.755l-1.2.481-.161-1.286c-.805-6.441-.158-12.715.467-18.783a121.23,121.23,0,0,0,.848-12.425,8.3,8.3,0,0,0-.467-2.295c-.337-1.11-.685-2.258.1-3.042l.039-.039.043-.035a9.235,9.235,0,0,1,5.915-2.038,15.1,15.1,0,0,1,5.543,1.181c.4.078.848.369,1.126,1.2a11.585,11.585,0,0,1,.326,1.389c.037.191.076.389.117.586a20.781,20.781,0,0,1,4.111-2.339c.5-.235,1.014-.479,1.556-.75a8.182,8.182,0,0,1,3.694-.827,13.3,13.3,0,0,1,5.772,1.475,11.039,11.039,0,0,1,5.523,5.516,18.464,18.464,0,0,1,1.67,7.957v.042l0,.041c-.141,1.691-.313,3.366-.48,4.987-.623,6.064-1.212,11.791-.192,17.913l.147.881-.858.245A24.555,24.555,0,0,1,811.926,60.508Zm-5.74-2.158c.888.014,1.751.047,2.593.078,1.085.041,2.11.08,3.147.08a23.334,23.334,0,0,0,5.487-.566c-.867-6.04-.292-11.635.315-17.543.164-1.6.334-3.249.473-4.906-.011-5.66-2.255-10-6.007-11.605l-.053-.025a11.322,11.322,0,0,0-4.9-1.277,6.2,6.2,0,0,0-2.8.615c-.562.281-1.088.529-1.6.77a15.237,15.237,0,0,0-4.758,3.011l-.981.981-.62-1.241a9.891,9.891,0,0,1-.687-2.424c-.069-.352-.166-.85-.252-1.118a13.316,13.316,0,0,0-4.78-1.031,7.186,7.186,0,0,0-4.473,1.45,8.32,8.32,0,0,0,.29,1.123,9.978,9.978,0,0,1,.554,2.875,122.751,122.751,0,0,1-.858,12.63c-.6,5.822-1.169,11.342-.607,17.111a15.224,15.224,0,0,1,4.1-.485c.852,0,1.7.043,2.53.084.448.022.9.045,1.359.061a52.436,52.436,0,0,1,.58-11.624,54.012,54.012,0,0,1,3.509-12.147c.495-1.8,2.356-2.871,5-2.871a10.008,10.008,0,0,1,4.333.974l.145.073.115.115a5.911,5.911,0,0,1,1.616,3.353v.038l0,.038a75.242,75.242,0,0,1-1.484,9.329C806.511,49,805.6,53.467,806.186,58.35Z" transform="translate(-700.158 -7.758)" fill="#fff"/><path d="M863.024,61.087h-.05a18.524,18.524,0,0,1-9.014-2.82,19.945,19.945,0,0,1-6.342-6.446,21.19,21.19,0,0,1-3.05-9.273,20.413,20.413,0,0,1,1.67-9.981l.006-.013c3.409-7.386,10.371-12.158,17.738-12.158a17.779,17.779,0,0,1,5.992,1.054,14.424,14.424,0,0,1,8.388,7.774,19.92,19.92,0,0,1,1.706,8.234,23.681,23.681,0,0,1-1.561,8.44l-.2.524-.553.1a27.791,27.791,0,0,1-4.956.437c-4.641,0-9.608-1.06-15.548-3.327a6.69,6.69,0,0,0,3,5.681,13.007,13.007,0,0,0,11.59-.04l.79-.395.49.735c.3.444.582.9.885,1.392a13.914,13.914,0,0,0,3.467,4.283l1.248.832-1.248.832A27,27,0,0,1,863.024,61.087Zm-14.961-27.7a18.707,18.707,0,0,0,1.259,17.388,17.019,17.019,0,0,0,13.727,8.315A25.492,25.492,0,0,0,875.2,56a21.056,21.056,0,0,1-2.9-3.938q-.2-.318-.388-.621a15,15,0,0,1-12.644-.378l-.081-.04-.072-.054c-3.114-2.335-4.389-5.424-3.687-8.932l.236-1.179,1.116.446c6.237,2.495,11.325,3.656,16.014,3.656a26.027,26.027,0,0,0,4.04-.31,20.1,20.1,0,0,0-.292-14.591,12.466,12.466,0,0,0-7.243-6.725,15.785,15.785,0,0,0-5.32-.937C857.394,22.4,851.146,26.708,848.062,33.384Zm20.27,5.322h0a19.755,19.755,0,0,1-6.469-1.506,25.98,25.98,0,0,0-4.295-1.258l-1.623-.27.987-1.316c.161-.215.32-.431.488-.66,1.609-2.189,3.432-4.671,6.519-4.671a6.485,6.485,0,0,1,2.045.352l.067.022.064.032a14.726,14.726,0,0,1,4.228,2.833l.07.07.055.082a5.6,5.6,0,0,1,.481,5.278,1.514,1.514,0,0,1-1.2.9A8.988,8.988,0,0,1,868.332,38.707Zm-8.881-4.393c1.043.281,2.073.646,3.08,1a18.034,18.034,0,0,0,5.8,1.391h0a7.091,7.091,0,0,0,.9-.056,3.067,3.067,0,0,0,.167-1.094,3.779,3.779,0,0,0-.544-1.95,12.878,12.878,0,0,0-3.568-2.352,4.446,4.446,0,0,0-1.348-.229C862.065,31.025,860.76,32.555,859.451,34.313Z" transform="translate(-720.834 -7.841)" fill="#fff"/><path d="M914.654,53.57a10.2,10.2,0,0,1-6.167-2.193,14.48,14.48,0,0,1-4.124-5.058l-.019-.037-.015-.039c-2.917-7.293-1.06-14.829.736-22.116a83.254,83.254,0,0,0,1.846-8.805c.635-5.087-.623-9.487-1.954-14.146L904.593-.1h13.984l.207.725a51.615,51.615,0,0,1,1.5,9.438c.143,1.506.292,3.063.509,4.583l.01.07v.071c0,4.431-1.194,8.867-2.349,13.156-1.121,4.164-2.28,8.47-2.28,12.636a2.14,2.14,0,0,0,2.307,2.307h.781l.189.757a39.979,39.979,0,0,0,3.23,7.73l.516,1.031-1.093.366a18.988,18.988,0,0,1-6.2.713A9.407,9.407,0,0,1,914.654,53.57Zm-8.484-8.108c1.426,2.827,4.493,6.108,8.484,6.108A7.4,7.4,0,0,0,915.7,51.5l.07-.01h.071a21.832,21.832,0,0,0,4.513-.308,39.483,39.483,0,0,1-2.649-6.349,4.084,4.084,0,0,1-3.525-4.248c0-4.431,1.194-8.867,2.349-13.156,1.115-4.141,2.267-8.422,2.28-12.566-.218-1.543-.366-3.1-.51-4.6a54.337,54.337,0,0,0-1.24-8.353h-9.815c1.2,4.255,2.276,8.681,1.652,13.674v.008a85.983,85.983,0,0,1-1.887,9.023C905.29,31.572,903.515,38.776,906.17,45.461Z" transform="translate(-740.582 -0.9)" fill="#fff"/><path d="M937.042,73.372a2.559,2.559,0,0,1-.869-.123,1.269,1.269,0,0,1-.811-.808c-1.252-2.217-.775-4.417-.354-6.362a9.3,9.3,0,0,0,.318-3.726L935,60.745l1.577.451a7.542,7.542,0,0,0,2.068.3,4.99,4.99,0,0,0,5.255-5.266c-.647-11.616-2.533-24.618-11.585-33.023L931.02,22l1.706-.487a24.553,24.553,0,0,1,6.888-.865c1.074,0,2.117.039,3.222.081s2.232.084,3.392.084h.721l.228.684a26.292,26.292,0,0,0,3.19,5.714l.083.124.043.143c.237.79.489,1.6.732,2.378,1.406,4.506,2.848,9.128,2.637,14.039a40.705,40.705,0,0,0,5.915-20.759v-1.22l1.2.239a8.666,8.666,0,0,0,1.719.166,19.269,19.269,0,0,0,3.375-.4,22.162,22.162,0,0,1,3.969-.449h1v1a44.835,44.835,0,0,1-1.351,10.736,74.773,74.773,0,0,1-3.35,10.137l-.015.039-.019.037A204.41,204.41,0,0,1,951.017,69.34l-.051.074-.064.064a11.939,11.939,0,0,1-8.643,3.768,13.08,13.08,0,0,1-2.06-.168c-.376.008-.9.074-1.417.138A15.3,15.3,0,0,1,937.042,73.372Zm.374-9.959a15.512,15.512,0,0,1-.453,3.091c-.387,1.788-.724,3.341.093,4.869a14.5,14.5,0,0,0,1.479-.139,15.3,15.3,0,0,1,1.741-.155h.083l.082.014a11.11,11.11,0,0,0,1.82.155,9.985,9.985,0,0,0,7.166-3.12,202.435,202.435,0,0,0,15.068-25.558c2.147-5.371,4.334-11.8,4.528-19.05-.878.07-1.724.22-2.606.376a21.086,21.086,0,0,1-3.723.428c-.317,0-.627-.013-.932-.038a41.047,41.047,0,0,1-2.355,12.5,47.408,47.408,0,0,1-6.417,12.077l-1.773-.851c1.668-6.118-.065-11.672-1.9-17.553-.23-.739-.468-1.5-.7-2.255a30.894,30.894,0,0,1-3.091-5.387c-.949-.012-1.871-.047-2.768-.081-1.085-.041-2.11-.08-3.146-.08a24.707,24.707,0,0,0-4.628.384,31.631,31.631,0,0,1,4.557,6.172,40.933,40.933,0,0,1,3.593,8.612A81.247,81.247,0,0,1,945.9,56.15l0,.055a7.008,7.008,0,0,1-7.255,7.293A9.048,9.048,0,0,1,937.416,63.412Z" transform="translate(-750.469 -7.927)" fill="#fff"/><path d="M1008.038,60.619a16.768,16.768,0,0,1-2.9-.252,19.244,19.244,0,0,1-7.413-1.569,17.324,17.324,0,0,1-6.492-4.743l-.419-.5.292-.585c.255-.51.508-1.04.775-1.6,1.09-2.287,2.325-4.879,4.042-6.6l.79-.79.7.872a14.778,14.778,0,0,0,9.209,5.574,1.914,1.914,0,0,0,1.566-1.5c-.947-2.605-3.282-4.111-5.751-5.7-2.609-1.682-5.307-3.421-6.719-6.6l-.005-.012a12.2,12.2,0,0,1-.541-8.017,10.606,10.606,0,0,1,4.932-6.472l.04-.023.042-.019a21.158,21.158,0,0,1,8.7-1.861,19,19,0,0,1,14.289,6.075l.45.506-.3.606c-.255.51-.508,1.04-.775,1.6-1.09,2.287-2.325,4.879-4.042,6.6l-.981.981-.62-1.241c-.979-1.957-2.945-3.329-5.844-4.077h-2.263a1.284,1.284,0,0,0-.606.717,2.206,2.206,0,0,0,.485,1.642,28.608,28.608,0,0,0,5.465,4.357,28.048,28.048,0,0,1,5.641,4.542,9.1,9.1,0,0,1,2.321,7v.008a10.935,10.935,0,0,1-1.527,4.691,11.986,11.986,0,0,1-3.235,3.491A15.828,15.828,0,0,1,1008.038,60.619Zm-14.846-7.361a16.635,16.635,0,0,0,12.035,5.109h.09l.089.016a14.752,14.752,0,0,0,2.632.236c5.576,0,11.51-3.18,12.065-9.258.388-4.674-3.076-7.012-7.087-9.718a29.718,29.718,0,0,1-5.9-4.748l-.043-.049-.036-.054a4.065,4.065,0,0,1-.789-3.319,3.319,3.319,0,0,1,1.835-2.1l.211-.106h3l.119.03a11.119,11.119,0,0,1,6.506,3.915,30.17,30.17,0,0,0,2.809-5.064c.165-.347.325-.682.484-1.011a17.136,17.136,0,0,0-12.341-4.916,19.149,19.149,0,0,0-7.826,1.662c-4.324,2.5-5.182,8.024-3.508,11.936,1.171,2.628,3.5,4.132,5.972,5.724,2.7,1.743,5.5,3.545,6.626,6.926l.051.154v.162a3.84,3.84,0,0,1-3.645,3.645h-.083l-.082-.014a16.541,16.541,0,0,1-9.77-5.411,28.789,28.789,0,0,0-2.929,5.221C993.517,52.582,993.354,52.924,993.192,53.258Z" transform="translate(-770.449 -7.782)" fill="#fff"/><path d="M1083.8,61.1a57.956,57.956,0,0,1-6.088-.436,53.827,53.827,0,0,0-5.615-.41h-.721l-.228-.684a35.139,35.139,0,0,1-1.63-10.8c-.037-3.152.207-6.391.48-9.56-3.064,6.147-5.794,12.119-6.833,18.871l-.18,1.171-1.124-.375a17.3,17.3,0,0,0-5.636-.775c-.971,0-1.969.042-2.934.082-.986.041-2,.084-3.018.084h-.82l-.161-.8c-.759-3.794-1.237-7.741-1.7-11.558-.752-6.208-1.53-12.626-3.536-18.673-.155-.3-.358-.618-.572-.954A7.381,7.381,0,0,1,1042,22.223V21.5l.684-.228c4.122-1.374,8.776-1.374,12.882-1.374h.618l.276.553c3.074,6.148,2.722,13.27,2.344,20.173,3.181-6.362,6.444-12.931,8.37-19.351l.262-.872.892.178c.958.192,1.851.434,2.715.668a17.366,17.366,0,0,0,4.516.815,8.24,8.24,0,0,0,1.635-.161l.9-.181.253.887a37.185,37.185,0,0,1,1.361,14.895V47.5q.511-1.363,1.018-2.7c2.694-7.1,5.239-13.813,6.249-21.389l.116-.868h.875a32.413,32.413,0,0,0,8.355-1.293l1.243-.311v1.281c0,8.991-3.018,17.442-5.937,25.615-1.438,4.026-2.925,8.19-4.016,12.337l-.169.642-.657.094A21,21,0,0,1,1083.8,61.1Zm-10.969-2.836c1.666.045,3.4.231,5.094.412a56.481,56.481,0,0,0,5.875.425,20.394,20.394,0,0,0,2.055-.1c1.093-4.008,2.514-7.988,3.891-11.844,2.72-7.615,5.527-15.476,5.8-23.659a32.3,32.3,0,0,1-6.705,1.025c-1.11,7.451-3.6,14.031-6.241,20.981-.76,2-1.545,4.075-2.285,6.147l-1.942-.336a5.814,5.814,0,0,0-.279-1.006,5.583,5.583,0,0,1-.382-1.639V37.363l.01-.07a34.517,34.517,0,0,0-1.061-13.286,10.367,10.367,0,0,1-1.1.058,18.856,18.856,0,0,1-5.039-.885c-.555-.15-1.123-.3-1.7-.443-2.026,6.384-5.239,12.817-8.355,19.05L1058.5,47.67l-1.949-.316c0-2.147.124-4.413.244-6.6.356-6.5.725-13.217-1.858-18.85a40.66,40.66,0,0,0-10.861,1.037,7.032,7.032,0,0,0,1.1,2.273,13.5,13.5,0,0,1,.705,1.195l.032.064.022.067c2.086,6.259,2.88,12.805,3.647,19.136.425,3.505.863,7.121,1.518,10.594.706-.014,1.417-.044,2.112-.073.986-.041,2-.084,3.018-.084a20.781,20.781,0,0,1,5.152.552c1.361-7.488,4.63-13.975,8.08-20.823.355-.705.723-1.434,1.084-2.158l1.891.524c-.1,1.249-.208,2.516-.315,3.74C1071.489,45.1,1070.893,51.875,1072.833,58.268Z" transform="translate(-787.721 -7.673)" fill="#fff"/><path d="M1147.06,60.585a15.919,15.919,0,0,1-2.553-.207,17.556,17.556,0,0,1-8.521-2.652,18.221,18.221,0,0,1-5.87-6.05,20.575,20.575,0,0,1-.956-19.173l.021-.046.026-.043c.264-.44.524-.885.8-1.356,1.752-3,3.738-6.4,6.819-8.246l.029-.017a20.481,20.481,0,0,1,9.931-2.529,19.644,19.644,0,0,1,10.949,3.232l.221.147.119.238a5.9,5.9,0,0,0,1.671,1.766c.443.365.945.778,1.448,1.281a16.51,16.51,0,0,1,4.588,10.371,24.769,24.769,0,0,1-1.721,11.209l-.018.042a21.829,21.829,0,0,1-6.856,8.559A17.053,17.053,0,0,1,1147.06,60.585ZM1130.948,33.4a18.605,18.605,0,0,0,.883,17.248,15.483,15.483,0,0,0,12.833,7.737l.058,0,.057.009a13.916,13.916,0,0,0,2.281.19c6.205,0,12.151-4.253,15.152-10.839,2.41-6.042,2.591-14.378-2.433-19.4-.434-.434-.877-.8-1.3-1.15a8.116,8.116,0,0,1-2.055-2.166,17.682,17.682,0,0,0-9.635-2.762,18.479,18.479,0,0,0-8.945,2.269c-2.634,1.587-4.4,4.609-6.107,7.532C1131.476,32.507,1131.21,32.962,1130.948,33.4Zm14.735,17.9h0a4.361,4.361,0,0,1-1.325-.212,5.7,5.7,0,0,1-3.9-2.676,14.035,14.035,0,0,1-1.441-4l-.015-.059-.008-.06a16.264,16.264,0,0,1,.976-8.024,10.409,10.409,0,0,1,4.782-5.52,5.065,5.065,0,0,1,2.989-.951,6.291,6.291,0,0,1,3.623,1.2,5.417,5.417,0,0,1,2.144,2.949,14.2,14.2,0,0,1,.6,8.3,15.24,15.24,0,0,1-4.152,7.259l-.115.115-.145.073c-.25.125-.515.286-.8.457A6.13,6.13,0,0,1,1145.683,51.3Zm-4.714-7.316c.718,2.865,1.3,4.647,3.841,5.155l.061.012.059.02a2.352,2.352,0,0,0,.753.129,4.374,4.374,0,0,0,2.173-.86c.255-.155.518-.315.788-.459a12.32,12.32,0,0,0,2.97-13.382l-.02-.053-.014-.055a3.456,3.456,0,0,0-1.384-1.866,4.337,4.337,0,0,0-2.458-.828,3.035,3.035,0,0,0-1.863.606l-.072.054-.081.04C1142.307,34.208,1140.357,38.927,1140.97,43.988Z" transform="translate(-816.587 -7.797)" fill="#fff"/><path d="M1204.7,59.8h-11.9l-.189-.757a39.856,39.856,0,0,1-.775-11.561c.041-1.261.084-2.565.084-3.893v-.045l0-.045c.173-1.905.437-3.774.692-5.582.729-5.159,1.417-10.032,0-15.228l-.282-1.034,1.051-.21c.385-.077.776-.162,1.189-.253a22.808,22.808,0,0,1,4.809-.688,8.317,8.317,0,0,1,5.33,1.744,2.543,2.543,0,0,1,1.165,1.664,10.328,10.328,0,0,1,.237,1.919l0,.054c2.373-2.783,5.738-5.237,9.367-5.237a8.153,8.153,0,0,1,3.673.884l.553.276v.618c0,.991.043,1.956.084,2.889a22.367,22.367,0,0,1-.8,8.67l-.344,1.031-1-.428a8.857,8.857,0,0,0-3.51-.7c-3.322,0-6.5,1.708-7.749,4.158a37.411,37.411,0,0,0-1.913,20.573Zm-10.325-2h7.945a40.685,40.685,0,0,1-.311-9.922,38.043,38.043,0,0,1,2.547-10.612l.015-.039.019-.037c1.585-3.17,5.425-5.3,9.555-5.3a11.059,11.059,0,0,1,3.247.474,22.63,22.63,0,0,0,.405-6.961c-.033-.753-.068-1.526-.081-2.327a6.073,6.073,0,0,0-2.231-.429c-3.675,0-7.236,3.386-9.169,6.285l-1.134,1.7-.647-1.94a10.8,10.8,0,0,1-.417-2.737c-.049-.773-.116-1.831-.4-1.976l-.095-.047-.083-.066a6.3,6.3,0,0,0-4.154-1.363,20.969,20.969,0,0,0-4.382.642l-.2.043c1.181,5.192.506,9.968-.206,15.007-.25,1.769-.508,3.6-.677,5.438,0,1.344-.044,2.65-.085,3.913A40.563,40.563,0,0,0,1194.37,57.8Z" transform="translate(-838.434 -7.879)" fill="#fff"/><path d="M1262.358,53.919a23.262,23.262,0,0,1-4.552-.454l-.3-.059-.214-.214a10.518,10.518,0,0,1-1.639-2.514c-2.119,1.486-4.75,2.937-7.569,2.937a7.8,7.8,0,0,1-1.474-.139,15.328,15.328,0,0,1-11.866-7.341,22.017,22.017,0,0,1-3.08-10.314,26.542,26.542,0,0,1,1.584-10.783,18.711,18.711,0,0,1,6.037-8.606,16.859,16.859,0,0,1,4.576-2.611,14.87,14.87,0,0,1,5.229-.962,14.719,14.719,0,0,1,5.3,1l.045.017.043.022a11.7,11.7,0,0,1,3.882,3.133q.021-.957.047-1.892a61.045,61.045,0,0,0-.727-14.039l-.239-1.2h11.942l.174.783a55.318,55.318,0,0,1,1.34,18.184v.006c-.311,2.647-.737,5.323-1.148,7.912-1.377,8.668-2.678,16.855-.214,24.74l.276.883-.859.344A17.721,17.721,0,0,1,1262.358,53.919Zm-3.836-2.353a21.225,21.225,0,0,0,3.836.353,16.712,16.712,0,0,0,5-.719,37.637,37.637,0,0,1-1.145-11.84,117.269,117.269,0,0,1,1.564-12.889c.408-2.568.83-5.223,1.136-7.829A52.539,52.539,0,0,0,1267.778,1.9h-7.913a67.057,67.057,0,0,1,.545,13.287c-.041,1.588-.084,3.23-.084,4.892v3.3l-1.832-2.748c-1.277-1.916-2.484-3.725-4.863-4.929a12.719,12.719,0,0,0-4.537-.848c-5.992,0-11.859,4.555-13.95,10.83l-.012.035c-2.412,6.433-1.884,14.212,1.315,19.357a13.4,13.4,0,0,0,10.414,6.412l.049,0,.048.01a5.781,5.781,0,0,0,1.131.11c2.7,0,5.479-1.847,7.331-3.236l.958-.719.536,1.072A18.485,18.485,0,0,0,1258.522,51.567Zm-8.1-7.092a6.437,6.437,0,0,1-1.929-.279,7.335,7.335,0,0,1-4.122-2.2,8.521,8.521,0,0,1-1.884-3.82l-.013-.05-.007-.051a18.223,18.223,0,0,1,.525-7.526,15.094,15.094,0,0,1,3.726-6.55l.039-.039.043-.035a5.728,5.728,0,0,1,3.651-1.315c2.948,0,5.761,2.194,7.6,4.034l.479.479-.267.622c-1.429,3.334-1.782,6.634-2.157,10.129-.123,1.147-.25,2.332-.418,3.507l-.013.089-.028.086C1254.973,43.573,1252.536,44.474,1250.418,44.474Zm-5.982-6.731c.686,2.695,1.994,4,4.5,4.5l.061.012.059.02a4.373,4.373,0,0,0,1.358.2c1.331,0,2.915-.516,3.3-1.476.156-1.108.277-2.239.395-3.335A37.7,37.7,0,0,1,1256.16,27.6c-2.06-1.932-4.072-2.988-5.712-2.988a3.713,3.713,0,0,0-2.359.843C1245.227,28.348,1243.8,33.158,1244.436,37.743Z" transform="translate(-851.937 -0.9)" fill="#fff"/></g></g></svg>